<svg xmlns="http://www.w3.org/2000/svg" width="27.251" height="27.249" viewBox="0 0 27.251 27.249"><g transform="translate(-991.908 -946.226)"><g transform="translate(32 11)"><path d="M28.536,2.5H0A2.5,2.5,0,0,1-2.5,0,2.5,2.5,0,0,1,0-2.5H28.536a2.5,2.5,0,0,1,2.5,2.5A2.5,2.5,0,0,1,28.536,2.5Z" transform="translate(963.445 938.762) rotate(45)" fill="#e95f32"/><path d="M28.536,2.5H0A2.5,2.5,0,0,1-2.5,0,2.5,2.5,0,0,1,0-2.5H28.536a2.5,2.5,0,0,1,2.5,2.5A2.5,2.5,0,0,1,28.536,2.5Z" transform="translate(983.621 938.762) rotate(135)" fill="#e95f32"/></g></g></svg>