<?xml version="1.0" encoding="utf-8"?>
<!-- Generator: Adobe Illustrator 23.0.3, SVG Export Plug-In . SVG Version: 6.00 Build 0)  -->
<svg version="1.1" id="Layer_1" xmlns="http://www.w3.org/2000/svg" xmlns:xlink="http://www.w3.org/1999/xlink" x="0px" y="0px"
	 viewBox="0 0 1000 1000" style="enable-background:new 0 0 1000 1000;" xml:space="preserve">
<style type="text/css">
	.st0{fill:#4EB3DA;}
	.st1{fill:#A4DEF2;}
	.st2{opacity:0.18;fill:#3CA1C4;}
	.st3{opacity:0.36;}
	.st4{fill:#FFFFFF;}
</style>
<circle class="st0" cx="500.4" cy="500.6" r="408.6"/>
<circle class="st1" cx="500.4" cy="500.6" r="328.1"/>
<g>
	
		<image style="overflow:visible;opacity:0.4;" width="4145" height="4145" xlink:href="7070805A.png"  transform="matrix(0.24 0 0 0.24 4.2192 4.4592)">
	</image>
	<g>
		<g>
			<path class="st1" d="M872,173.1C781.3,70.1,648.4,5.2,500.4,5.2C226.8,5.2,5,227,5,500.6c0,148,64.9,280.9,167.8,371.6
				c87.3,77.1,202,123.8,327.6,123.8c273.6,0,495.4-221.8,495.4-495.4C995.8,375,949,260.4,872,173.1z M500.4,909.2
				c-225.7,0-408.6-182.9-408.6-408.6S274.7,92,500.4,92S909,274.9,909,500.6S726,909.2,500.4,909.2z"/>
		</g>
	</g>
</g>
<path class="st2" d="M995.8,500.6C995.8,774.2,774,996,500.4,996c-125.6,0-240.2-46.7-327.6-123.8L872,173.1
	C949,260.4,995.8,375,995.8,500.6z"/>
<g class="st3">
	
		<image style="overflow:visible;opacity:0.5;" width="3440" height="3440" xlink:href="7070805E.png"  transform="matrix(0.24 0 0 0.24 9.1843 9.6243)">
	</image>
	<g>
		<path class="st4" d="M800.5,106.2L105.7,800.9c-25-32.3-46-67.9-62.5-105.9l67.2-67.2L627.3,111l67.2-67.2
			C732.6,60.2,768.1,81.2,800.5,106.2z"/>
	</g>
</g>
<g class="st3">
	
		<image style="overflow:visible;opacity:0.5;" width="2728" height="2727" xlink:href="70708059.png"  transform="matrix(0.24 0 0 0.24 -30.4157 -29.7357)">
	</image>
	<g>
		<path class="st4" d="M590,11.8L11.3,590.5c-3.7-20-6.3-40.4-7.5-61.1L94,439.2L528.9,4.3C549.7,5.5,570.1,8.1,590,11.8z"/>
	</g>
</g>
<g>
	
		<image style="overflow:visible;opacity:0.8;" width="2027" height="2108" xlink:href="7070805B.png"  transform="matrix(0.24 0 0 0.24 260.3521 282.6721)">
	</image>
	<g>
		<g>
			<path class="st4" d="M318.6,551.6c-8.2,0-16.4-3.1-22.7-9.4c-12.5-12.5-12.5-32.9,0-45.4l64.2-64.3l-75-79.6
				c-12.2-12.9-11.5-33.2,1.4-45.4c12.9-12.2,33.2-11.6,45.4,1.4l117.7,125L341.3,542.2C335,548.5,326.8,551.6,318.6,551.6z"/>
			<path class="st4" d="M505.3,770.3c-17.7,0-32.1-14.4-32.1-32.1l-0.1-278.9c0-17.7,14.4-32.1,32.1-32.1c0,0,0,0,0,0
				c17.7,0,32.1,14.4,32.1,32.1l0.1,278.9C537.4,755.9,523,770.3,505.3,770.3C505.3,770.3,505.3,770.3,505.3,770.3z"/>
			<path class="st4" d="M686.5,551.5c-8.2,0-16.4-3.1-22.7-9.4L555.5,433.8l117.6-125.1c12.1-12.9,32.5-13.5,45.4-1.4
				c12.9,12.2,13.5,32.5,1.4,45.4l-75,79.7l64.3,64.2c12.5,12.5,12.5,32.9,0,45.4C702.9,548.4,694.7,551.5,686.5,551.5z"/>
		</g>
	</g>
</g>
<path class="st4" d="M795.9,164.5c-1.4,0-2.9-0.5-4-1.5C790.4,161.9,648.7,46.3,534,58.6c-3.5,0.4-6.6-2.1-7-5.6
	c-0.4-3.5,2.1-6.6,5.6-7C652.6,33,794,148.3,799.9,153.2c2.7,2.2,3.1,6.2,0.9,8.9C799.5,163.7,797.7,164.5,795.9,164.5z"/>
</svg>
