<?xml version="1.0" encoding="utf-8"?>
<!-- Generator: Adobe Illustrator 23.0.3, SVG Export Plug-In . SVG Version: 6.00 Build 0)  -->
<svg version="1.1" id="Layer_1" xmlns="http://www.w3.org/2000/svg" xmlns:xlink="http://www.w3.org/1999/xlink" x="0px" y="0px"
	 viewBox="0 0 1000 1000" style="enable-background:new 0 0 1000 1000;" xml:space="preserve">
<style type="text/css">
	.st0{fill:#FDB714;}
	.st1{fill:#FDDA3E;}
	.st2{opacity:0.18;fill:#D67727;enable-background:new    ;}
	.st3{fill:#FFFFFF;}
	.st4{opacity:0.36;}
</style>
<g>
	<g>
		<circle class="st0" cx="499.3" cy="500.6" r="408.7"/>
		<circle class="st1" cx="499.3" cy="500.6" r="328.2"/>
		<g>
			
				<image style="overflow:visible;opacity:0.4;enable-background:new    ;" width="3233" height="3233" xlink:href="95C37DE4.png"  transform="matrix(0.3081 0 0 0.3081 2.8552 4.0393)">
			</image>
			<g>
				<g>
					<path class="st1" d="M871,172.8C780.2,69.9,647.3,5,499.3,5C225.7,5,3.9,226.8,3.9,500.4c0,148.1,64.9,280.9,167.8,371.7
						c87.3,77.1,202,123.8,327.6,123.8c273.6,0,495.4-221.8,495.4-495.4C994.9,374.9,948.1,260.2,871,172.8z M499.3,909.1
						c-225.7,0-408.7-183-408.7-408.7s183-408.7,408.7-408.7S908,274.8,908,500.4S725.1,909.1,499.3,909.1z"/>
				</g>
			</g>
		</g>
		<path class="st2" d="M994.9,500.6C994.9,774.2,773,996,499.4,996c-125.6,0-240.3-46.8-327.6-123.8L871.1,173
			C948.1,260.2,994.9,374.9,994.9,500.6z"/>
		<g>
			
				<image style="overflow:visible;opacity:0.8;enable-background:new    ;" width="1617" height="1675" xlink:href="95C37DE5.png"  transform="matrix(0.3075 0 0 0.3075 254.2844 278.3203)">
			</image>
			<g>
				<g>
					<path class="st3" d="M317.6,551.4c-8.2,0-16.5-3.1-22.7-9.4c-12.6-12.6-12.6-32.9,0-45.4l64.3-64.3L284,352.8
						c-12.2-12.9-11.6-33.3,1.4-45.4c12.9-12.2,33.3-11.6,45.4,1.4l117.7,125L340.2,542.2C334,548.4,325.8,551.4,317.6,551.4z"/>
					<path class="st3" d="M504.2,770.2c-17.7,0-32.1-14.4-32.1-32.1l-0.1-279c0-17.7,14.4-32.1,32.1-32.1l0,0
						c17.7,0,32.1,14.4,32.1,32.1l0.1,279C536.3,755.9,521.9,770.2,504.2,770.2L504.2,770.2z"/>
					<path class="st3" d="M685.5,551.4c-8.2,0-16.5-3.1-22.7-9.4L554.4,433.7l117.6-125c12.2-13,32.5-13.5,45.4-1.4
						c12.9,12.2,13.5,32.5,1.4,45.4l-74.9,79.7l64.3,64.3c12.6,12.6,12.6,32.9,0,45.4C702,548.2,693.7,551.4,685.5,551.4z"/>
				</g>
			</g>
		</g>
	</g>
	<g class="st4">
		
			<image style="overflow:visible;opacity:0.5;enable-background:new    ;" width="2746" height="2742" xlink:href="95C37DE3.png"  transform="matrix(0.308 0 0 0.308 -2.7668 0.5242)">
		</image>
		<g>
			<path class="st3" d="M798.7,106.6L104,801.5c-24.9-32.4-46-68-62.5-105.9l67.2-67.2l516.9-516.9l67.2-67.2
				C730.9,60.6,766.5,81.7,798.7,106.6z"/>
		</g>
	</g>
	<g class="st4">
		
			<image style="overflow:visible;opacity:0.5;enable-background:new    ;" width="2192" height="2192" xlink:href="95C37DEC.png"  transform="matrix(0.3076 0 0 0.3076 -42.0166 -39.1875)">
		</image>
		<g>
			<path class="st3" d="M588.4,12.3L9.5,591c-3.7-20-6.3-40.4-7.5-61.2l90.2-90.2l435-435C547.9,6,568.3,8.6,588.4,12.3z"/>
		</g>
	</g>
	<path class="st3" d="M793.6,159.7c-1.4,0-2.8-0.5-4-1.4c-1.4-1.2-143.2-116.8-257.9-104.5c-3.5,0.4-6.7-2.2-6.9-5.7
		c-0.4-3.5,2.2-6.7,5.7-6.9c120-13,261.4,102.4,267.3,107.3c2.7,2.2,3.1,6.3,0.9,9C797.2,159,795.4,159.7,793.6,159.7z"/>
</g>
</svg>
