<?xml version="1.0" encoding="utf-8"?>
<!-- Generator: Adobe Illustrator 23.0.3, SVG Export Plug-In . SVG Version: 6.00 Build 0)  -->
<svg version="1.1" id="Layer_1" xmlns="http://www.w3.org/2000/svg" xmlns:xlink="http://www.w3.org/1999/xlink" x="0px" y="0px"
	 viewBox="0 0 1802.5 1370.9" style="enable-background:new 0 0 1802.5 1370.9;" xml:space="preserve">
<style type="text/css">
	.st0{fill:#BDABA0;}
	.st1{fill:#D9CDC3;}
	.st2{opacity:0.18;fill:#937F72;}
	.st3{opacity:0.36;}
	.st4{fill:#FFFFFF;}
	.st5{fill:#C1B1A7;}
</style>
<g>
	<circle class="st0" cx="896.4" cy="724.5" r="406.3"/>
	<circle class="st1" cx="896.4" cy="724.5" r="326.3"/>
	<g>
		
			<image style="overflow:visible;opacity:0.4;" width="4121" height="4121" xlink:href="B9DA46B8.png"  transform="matrix(0.24 0 0 0.24 403.1492 231.2392)">
		</image>
		<g>
			<g>
				<path class="st1" d="M1266,398.8c-20.8-23.7-44-45.3-69-64.6c-32.2-24.8-67.5-45.8-105.3-62.1c-33-14.2-67.7-25-104-31.7
					c-19.9-3.7-40.2-6.2-60.8-7.5c-10.1-0.7-20.3-1-30.5-1c-272.1,0-492.6,220.5-492.6,492.6c0,10.2,0.3,20.4,1,30.5
					c1.2,20.6,3.7,40.9,7.5,60.8c6.8,36.2,17.5,71,31.7,104c16.4,37.8,37.3,73.1,62.1,105.3c19.2,25,40.9,48.1,64.6,69
					c86.8,76.6,200.8,123.1,325.7,123.1c272,0,492.6-220.5,492.6-492.6C1389.1,599.7,1342.6,485.6,1266,398.8z M896.5,1130.8
					c-135.1,0-254.8-65.9-328.7-167.4c-24.3-33.3-43.7-70.6-56.9-110.5c-12.1-36.4-19.2-75.1-20.5-115.2c-0.2-4.4-0.3-8.8-0.3-13.1
					c0-20.1,1.5-39.8,4.3-59.2c25.8-177,165.8-317,342.9-342.9c19.3-2.8,39.1-4.3,59.2-4.3c4.4,0,8.8,0.1,13.1,0.3
					c40.2,1.2,78.8,8.3,115.2,20.5c40,13.3,77.2,32.6,110.5,56.9c101.5,73.9,167.4,193.6,167.4,328.7
					C1302.8,949,1120.8,1130.8,896.5,1130.8z"/>
			</g>
		</g>
	</g>
	<path class="st2" d="M1389.1,724.5c0,272.1-220.5,492.6-492.6,492.6c-124.9,0-238.9-46.5-325.7-123.1l695.2-695.2
		C1342.6,485.6,1389.1,599.7,1389.1,724.5z"/>
	<g class="st3">
		
			<image style="overflow:visible;opacity:0.5;" width="3423" height="3423" xlink:href="B9DA46B9.png"  transform="matrix(0.24 0 0 0.24 408.9943 236.8443)">
		</image>
		<g>
			<path class="st4" d="M1196.2,333.2L505.4,1024c-24.8-32.2-45.8-67.5-62.1-105.3l66.9-66.9l514-514l66.9-66.9
				C1128.7,287.4,1164,308.3,1196.2,333.2z"/>
		</g>
	</g>
	<g class="st3">
		
			<image style="overflow:visible;opacity:0.5;" width="2714" height="2714" xlink:href="B9DA46BF.png"  transform="matrix(0.24 0 0 0.24 369.8742 197.7243)">
		</image>
		<g>
			<path class="st4" d="M987,239.3L411.5,814.8c-3.7-19.9-6.2-40.2-7.5-60.8l89.6-89.6l432.5-432.5C946.8,233,967.1,235.6,987,239.3
				z"/>
		</g>
	</g>
	<g>
		
			<image style="overflow:visible;opacity:0.8;" width="2017" height="2097" xlink:href="B9DA46BA.png"  transform="matrix(0.24 0 0 0.24 657.6021 507.7721)">
		</image>
		<g>
			<g>
				<path class="st4" d="M715.6,775.3c-8.2,0-16.3-3.1-22.6-9.3c-12.5-12.5-12.5-32.7,0-45.2l63.9-63.9l-74.6-79.2
					c-12.1-12.8-11.5-33,1.4-45.1c12.8-12.1,33-11.5,45.1,1.4l117,124.3L738.2,765.9C732,772.1,723.8,775.3,715.6,775.3z"/>
				<path class="st4" d="M901.3,992.7c-17.6,0-31.9-14.3-31.9-31.9l-0.1-277.4c0-17.6,14.3-31.9,31.9-31.9c0,0,0,0,0,0
					c17.6,0,31.9,14.3,31.9,31.9l0.1,277.4C933.2,978.4,918.9,992.7,901.3,992.7C901.3,992.7,901.3,992.7,901.3,992.7z"/>
				<path class="st4" d="M1081.5,775.2c-8.2,0-16.3-3.1-22.6-9.3L951.2,658.1l117-124.4c12.1-12.8,32.3-13.5,45.1-1.4
					c12.8,12.1,13.5,32.3,1.4,45.1l-74.5,79.2l63.9,63.9c12.5,12.5,12.5,32.7,0,45.2C1097.9,772,1089.7,775.2,1081.5,775.2z"/>
			</g>
		</g>
	</g>
	<path class="st4" d="M1194.4,390.3c-1.4,0-2.8-0.5-4-1.4c-1.4-1.2-142.4-116.1-256.5-103.9c-3.4,0.4-6.6-2.1-7-5.6
		c-0.4-3.5,2.1-6.6,5.6-7c119.4-12.8,259.9,101.8,265.8,106.7c2.7,2.2,3.1,6.2,0.9,8.9C1198,389.5,1196.2,390.3,1194.4,390.3z"/>
	<g>
		<g>
			<g>
				<path class="st5" d="M1683.1,755.9c-45,31.5-106.3,21.5-106.3,21.5s11.6-61.1,56.6-92.6c45-31.5,106.3-21.5,106.3-21.5
					S1728.1,724.4,1683.1,755.9z"/>
				<path class="st5" d="M1487.4,721.4c31.5,45,92.6,56.6,92.6,56.6s10-61.3-21.5-106.4c-31.5-45-92.6-56.6-92.6-56.6
					S1455.9,676.4,1487.4,721.4z"/>
			</g>
			<g>
				<path class="st5" d="M1688.6,583.8c-35.3,42.1-97.2,48.3-97.2,48.3s-4.6-62,30.7-104.1c35.3-42.1,97.2-48.3,97.2-48.3
					S1723.9,541.7,1688.6,583.8z"/>
				<path class="st5" d="M1490.6,601.1c42.1,35.3,104.1,30.7,104.1,30.7s-6.2-61.8-48.3-97.2c-42.1-35.3-104.1-30.7-104.1-30.7
					S1448.5,565.8,1490.6,601.1z"/>
			</g>
			<g>
				<path class="st5" d="M1649.3,416.1c-23.2,49.8-81.3,71.8-81.3,71.8s-20.5-58.7,2.7-108.5c23.2-49.8,81.3-71.8,81.3-71.8
					S1672.5,366.3,1649.3,416.1z"/>
				<path class="st5" d="M1462.5,484.1c49.8,23.2,108.5,2.7,108.5,2.7s-22-58.1-71.8-81.3c-49.8-23.2-108.5-2.7-108.5-2.7
					S1412.8,460.8,1462.5,484.1z"/>
			</g>
			<g>
				<path class="st5" d="M1568,264.3c-9.5,54.1-60,90.4-60,90.4s-35-51.4-25.4-105.5c9.5-54.1,60-90.4,60-90.4
					S1577.5,210.2,1568,264.3z"/>
				<path class="st5" d="M1405.2,378.3c54.1,9.5,105.5-25.4,105.5-25.4s-36.3-50.4-90.4-60c-54.1-9.5-105.5,25.4-105.5,25.4
					S1351.1,368.7,1405.2,378.3z"/>
			</g>
			<g>
				<path class="st5" d="M1450.1,138.7c4.8,54.7-34.5,102.9-34.5,102.9s-47.1-40.6-51.9-95.3c-4.8-54.7,34.5-102.9,34.5-102.9
					S1445.3,84,1450.1,138.7z"/>
				<path class="st5" d="M1322.3,290.9c54.7-4.8,95.3-51.9,95.3-51.9s-48.1-39.3-102.9-34.5c-54.7,4.8-95.3,51.9-95.3,51.9
					S1267.6,295.7,1322.3,290.9z"/>
			</g>
			<g>
				<path class="st5" d="M1239.9,64.7c45.2,31.2,57.2,92.2,57.2,92.2s-61.3,10.4-106.5-20.8c-45.2-31.2-57.2-92.2-57.2-92.2
					S1194.7,33.4,1239.9,64.7z"/>
			</g>
			<g>
				<path class="st5" d="M1097.4,1305.7c-42.1-35.3-48.3-97.2-48.3-97.2s62-4.6,104.1,30.7c42.1,35.3,48.3,97.1,48.3,97.1
					S1139.5,1341,1097.4,1305.7z"/>
				<path class="st5" d="M1080.1,1107.7c-35.3,42.1-30.7,104.1-30.7,104.1s61.8-6.2,97.1-48.3c35.3-42.1,30.7-104.1,30.7-104.1
					S1115.4,1065.6,1080.1,1107.7z"/>
			</g>
			<g>
				<path class="st5" d="M1265.1,1266.4c-49.8-23.2-71.8-81.3-71.8-81.3s58.7-20.5,108.5,2.7c49.8,23.2,71.8,81.3,71.8,81.3
					S1314.9,1289.6,1265.1,1266.4z"/>
				<path class="st5" d="M1197.1,1079.6c-23.2,49.8-2.7,108.5-2.7,108.5s58.1-22,81.3-71.8c23.2-49.8,2.7-108.5,2.7-108.5
					S1220.3,1029.8,1197.1,1079.6z"/>
			</g>
			<g>
				<path class="st5" d="M1416.9,1185c-54.1-9.5-90.4-60-90.4-60s51.4-35,105.5-25.4c54.1,9.5,90.4,60,90.4,60
					S1471,1194.6,1416.9,1185z"/>
				<path class="st5" d="M1302.9,1022.2c-9.5,54.1,25.4,105.5,25.4,105.5s50.4-36.3,60-90.4c9.5-54.1-25.4-105.5-25.4-105.5
					S1312.5,968.1,1302.9,1022.2z"/>
			</g>
			<g>
				<path class="st5" d="M1542.5,1067.2c-54.7,4.8-102.9-34.5-102.9-34.5s40.6-47.1,95.3-51.9c54.7-4.8,102.9,34.5,102.9,34.5
					S1597.2,1062.4,1542.5,1067.2z"/>
				<path class="st5" d="M1390.3,939.4c4.8,54.7,51.9,95.3,51.9,95.3s39.3-48.1,34.5-102.9c-4.8-54.7-51.9-95.3-51.9-95.3
					S1385.5,884.7,1390.3,939.4z"/>
			</g>
			<g>
				<path class="st5" d="M1633.3,920.8c-51.6,18.8-108.3-6.7-108.3-6.7s27-56,78.6-74.8c51.6-18.8,108.3,6.7,108.3,6.7
					S1684.9,902,1633.3,920.8z"/>
				<path class="st5" d="M1453.2,836.8c18.8,51.6,74.8,78.6,74.8,78.6s25.5-56.7,6.7-108.3c-18.8-51.6-74.8-78.6-74.8-78.6
					S1434.4,785.2,1453.2,836.8z"/>
			</g>
			<path class="st5" d="M963.5,1228.1c-24.6,0-47.8-1.6-68.1-5.2l2.1-11.7c74.7,13.2,189.2-1.5,269.6-21.9
				c240.4-60.9,416.7-286,419.2-535.1c2.3-232.3-149.4-449.3-369-527.6l4-11.1c224.3,80,379.3,301.6,376.9,538.9
				c-2.6,254.5-182.6,484.3-428.1,546.5C1110.1,1216.1,1031.4,1228.1,963.5,1228.1z"/>
		</g>
	</g>
	<g>
		<g>
			<g>
				<g>
					<path class="st5" d="M119.4,755.9c45,31.5,106.3,21.5,106.3,21.5s-11.6-61.1-56.6-92.6c-45-31.5-106.3-21.5-106.3-21.5
						S74.4,724.4,119.4,755.9z"/>
					<path class="st5" d="M315.1,721.4c-31.5,45-92.6,56.6-92.6,56.6s-10-61.3,21.5-106.4c31.5-45,92.6-56.6,92.6-56.6
						S346.6,676.4,315.1,721.4z"/>
				</g>
			</g>
			<g>
				<g>
					<path class="st5" d="M113.9,583.8c35.3,42.1,97.2,48.3,97.2,48.3s4.6-62-30.7-104.1C145,486,83.2,479.7,83.2,479.7
						S78.6,541.7,113.9,583.8z"/>
					<path class="st5" d="M311.9,601.1c-42.1,35.3-104.1,30.7-104.1,30.7s6.2-61.8,48.3-97.2c42.1-35.3,104.1-30.7,104.1-30.7
						S354,565.8,311.9,601.1z"/>
				</g>
			</g>
			<g>
				<g>
					<path class="st5" d="M153.2,416.1c23.2,49.8,81.3,71.8,81.3,71.8s20.5-58.7-2.7-108.5c-23.2-49.8-81.3-71.8-81.3-71.8
						S130,366.3,153.2,416.1z"/>
					<path class="st5" d="M340,484.1c-49.8,23.2-108.5,2.7-108.5,2.7s22-58.1,71.8-81.3c49.8-23.2,108.5-2.7,108.5-2.7
						S389.7,460.8,340,484.1z"/>
				</g>
			</g>
			<g>
				<g>
					<path class="st5" d="M234.5,264.3c9.5,54.1,60,90.4,60,90.4s35-51.4,25.4-105.5c-9.5-54.1-60-90.4-60-90.4
						S225,210.2,234.5,264.3z"/>
					<path class="st5" d="M397.3,378.3c-54.1,9.5-105.5-25.4-105.5-25.4s36.3-50.4,90.4-60c54.1-9.5,105.5,25.4,105.5,25.4
						S451.4,368.7,397.3,378.3z"/>
				</g>
			</g>
			<g>
				<g>
					<path class="st5" d="M352.4,138.7c-4.8,54.7,34.5,102.9,34.5,102.9s47.1-40.6,51.9-95.3c4.8-54.7-34.5-102.9-34.5-102.9
						S357.2,84,352.4,138.7z"/>
					<path class="st5" d="M480.2,290.9c-54.7-4.8-95.3-51.9-95.3-51.9s48.1-39.3,102.9-34.5c54.7,4.8,95.3,51.9,95.3,51.9
						S534.9,295.7,480.2,290.9z"/>
				</g>
			</g>
			<g>
				<g>
					<path class="st5" d="M562.6,64.7c-45.2,31.2-57.2,92.2-57.2,92.2s61.3,10.4,106.5-20.8c45.2-31.2,57.2-92.2,57.2-92.2
						S607.8,33.4,562.6,64.7z"/>
				</g>
			</g>
			<g>
				<g>
					<path class="st5" d="M705.1,1305.7c42.1-35.3,48.3-97.2,48.3-97.2s-62-4.6-104.1,30.7c-42.1,35.3-48.3,97.1-48.3,97.1
						S663,1341,705.1,1305.7z"/>
					<path class="st5" d="M722.4,1107.7c35.3,42.1,30.7,104.1,30.7,104.1s-61.8-6.2-97.1-48.3c-35.3-42.1-30.7-104.1-30.7-104.1
						S687.1,1065.6,722.4,1107.7z"/>
				</g>
			</g>
			<g>
				<g>
					<path class="st5" d="M537.4,1266.4c49.8-23.2,71.8-81.3,71.8-81.3s-58.7-20.5-108.5,2.7c-49.8,23.2-71.8,81.3-71.8,81.3
						S487.6,1289.6,537.4,1266.4z"/>
					<path class="st5" d="M605.4,1079.6c23.2,49.8,2.7,108.5,2.7,108.5s-58.1-22-81.3-71.8c-23.2-49.8-2.7-108.5-2.7-108.5
						S582.2,1029.8,605.4,1079.6z"/>
				</g>
			</g>
			<g>
				<g>
					<path class="st5" d="M385.6,1185c54.1-9.5,90.4-60,90.4-60s-51.4-35-105.5-25.4c-54.1,9.5-90.4,60-90.4,60
						S331.5,1194.6,385.6,1185z"/>
					<path class="st5" d="M499.6,1022.2c9.6,54.1-25.4,105.5-25.4,105.5s-50.4-36.3-60-90.4c-9.5-54.1,25.4-105.5,25.4-105.5
						S490,968.1,499.6,1022.2z"/>
				</g>
			</g>
			<g>
				<g>
					<path class="st5" d="M260,1067.2c54.7,4.8,102.9-34.5,102.9-34.5s-40.6-47.1-95.3-51.9c-54.7-4.8-102.9,34.5-102.9,34.5
						S205.2,1062.4,260,1067.2z"/>
					<path class="st5" d="M412.2,939.4c-4.8,54.7-51.9,95.3-51.9,95.3s-39.3-48.1-34.5-102.9c4.8-54.7,51.9-95.3,51.9-95.3
						S417,884.7,412.2,939.4z"/>
				</g>
			</g>
			<g>
				<g>
					<path class="st5" d="M169.2,920.8c51.6,18.8,108.3-6.7,108.3-6.7s-27-56-78.6-74.8C147.2,820.5,90.5,846,90.5,846
						S117.5,902,169.2,920.8z"/>
					<path class="st5" d="M349.3,836.8c-18.8,51.6-74.8,78.6-74.8,78.6s-25.5-56.7-6.7-108.3c18.8-51.6,74.8-78.6,74.8-78.6
						S368.1,785.2,349.3,836.8z"/>
				</g>
			</g>
			<path class="st5" d="M830.8,1228.2c-82.8,0-168.9-19.8-198.3-27.3C387,1138.7,207,908.9,204.4,654.4
				C202.1,417.1,357,195.6,581.3,115.6l4,11.1C365.7,205,213.9,422,216.3,654.3c2.5,249.2,178.8,474.2,419.1,535.1
				c37,9.4,164.9,38.6,260,21.9l2.1,11.7C876.4,1226.7,853.7,1228.2,830.8,1228.2z"/>
		</g>
	</g>
</g>
</svg>
