<?xml version="1.0" encoding="utf-8"?>
<!-- Generator: Adobe Illustrator 23.0.3, SVG Export Plug-In . SVG Version: 6.00 Build 0)  -->
<svg version="1.1" id="Layer_1" xmlns="http://www.w3.org/2000/svg" xmlns:xlink="http://www.w3.org/1999/xlink" x="0px" y="0px"
	 viewBox="0 0 1000 1000" style="enable-background:new 0 0 1000 1000;" xml:space="preserve">
<style type="text/css">
	.st0{fill:#C6C6C5;}
	.st1{fill:#EAEAEA;}
	.st2{opacity:0.18;fill:#9D9A98;enable-background:new    ;}
	.st3{opacity:0.36;}
	.st4{fill:#FFFFFF;}
</style>
<circle class="st0" cx="501" cy="501.2" r="407.9"/>
<circle class="st1" cx="501" cy="501.2" r="327.6"/>
<g>
	
		<image style="overflow:visible;opacity:0.4;enable-background:new    ;" width="4142" height="4142" xlink:href="42DB17B1.png"  transform="matrix(0.2397 0 0 0.2397 5.7392 5.9792)">
	</image>
	<g>
		<g>
			<path class="st1" d="M871.9,174.2C781.4,71.5,648.8,6.7,501,6.7C227.9,6.7,6.5,228.1,6.5,501.2c0,147.8,64.8,280.4,167.5,371
				c87.2,76.9,201.6,123.6,327,123.6c273.1,0,494.5-221.4,494.5-494.5C995.5,375.8,948.9,261.4,871.9,174.2z M501,909.1
				c-225.3,0-407.9-182.6-407.9-407.9S275.7,93.3,501,93.3s407.9,182.6,407.9,407.9S726.3,909.1,501,909.1z"/>
		</g>
	</g>
</g>
<path class="st2" d="M995.5,501.2c0,273.1-221.4,494.5-494.5,494.5c-125.4,0-239.8-46.7-327-123.6l697.9-697.9
	C948.9,261.4,995.5,375.8,995.5,501.2z"/>
<g class="st3">
	
		<image style="overflow:visible;opacity:0.5;enable-background:new    ;" width="3442" height="3442" xlink:href="42DB17B3.png"  transform="matrix(0.2395 0 0 0.2395 14.6643 14.7443)">
	</image>
	<g>
		<path class="st4" d="M804.8,111.3L111.3,804.8C86.4,772.5,65.4,737,48.9,699.1L116,632l516-516l67.1-67.1
			C737,65.4,772.5,86.4,804.8,111.3z"/>
	</g>
</g>
<g class="st3">
	
		<image style="overflow:visible;opacity:0.5;enable-background:new    ;" width="2729" height="2729" xlink:href="42DB17B6.png"  transform="matrix(0.2395 0 0 0.2395 -24.5157 -24.5557)">
	</image>
	<g>
		<path class="st4" d="M594.8,17L17,594.8c-3.7-20-6.3-40.3-7.5-61l90-90L533.7,9.6C554.4,10.8,574.8,13.3,594.8,17z"/>
	</g>
</g>
<g>
	
		<image style="overflow:visible;opacity:0.8;enable-background:new    ;" width="2029" height="2108" xlink:href="42DB17B7.png"  transform="matrix(0.2395 0 0 0.2395 261.3205 283.781)">
	</image>
	<g>
		<g>
			<path class="st4" d="M319.5,552.1c-8.2,0-16.4-3.1-22.7-9.4c-12.5-12.5-12.5-32.8,0-45.3l64.1-64.2L286,353.7
				c-12.1-12.9-11.5-33.2,1.4-45.3c12.9-12.1,33.2-11.5,45.3,1.4l117.5,124.8l-108,108.1C335.9,549,327.7,552.1,319.5,552.1z"/>
			<path class="st4" d="M505.9,770.4c-17.7,0-32-14.3-32.1-32l-0.1-278.5c0-17.7,14.3-32.1,32-32.1l0,0c17.7,0,32,14.3,32.1,32
				l0.1,278.5C537.9,756.1,523.6,770.4,505.9,770.4L505.9,770.4z"/>
			<path class="st4" d="M686.8,552c-8.2,0-16.4-3.1-22.7-9.4L556,434.5l117.4-124.8c12.1-12.9,32.4-13.5,45.3-1.4
				c12.9,12.1,13.5,32.4,1.4,45.3l-74.8,79.5l64.2,64.1c12.5,12.5,12.5,32.8,0,45.3C703.2,548.9,695,552,686.8,552z"/>
		</g>
	</g>
</g>
<path class="st4" d="M800.1,161.1c-1.4,0-2.8-0.5-4-1.4c-1.4-1.2-142.9-116.5-257.5-104.3c-3.5,0.3-6.6-2.1-7-5.6s2.1-6.6,5.6-7
	c119.9-12.9,261,102.2,266.9,107.1c2.7,2.2,3.1,6.2,0.9,8.9C803.7,160.3,801.9,161.1,800.1,161.1z"/>
</svg>
