<?xml version="1.0" encoding="utf-8"?>
<!-- Generator: Adobe Illustrator 23.0.3, SVG Export Plug-In . SVG Version: 6.00 Build 0)  -->
<svg version="1.1" id="Layer_1" xmlns="http://www.w3.org/2000/svg" xmlns:xlink="http://www.w3.org/1999/xlink" x="0px" y="0px"
	 viewBox="0 0 1000 1310.1" style="enable-background:new 0 0 1000 1310.1;" xml:space="preserve">
<style type="text/css">
	.st0{fill:#B47EB7;}
	.st1{fill:#CBA4CC;}
	.st2{opacity:0.36;}
	.st3{fill:#FFFFFF;}
	.st4{opacity:0.18;fill:#86489C;}
</style>
<polygon class="st0" points="183.8,810.8 183.8,1293.8 506.4,1135.7 829.7,1293.8 829.7,775.9 183.8,775.9 "/>
<polygon class="st1" points="183.8,785.8 183.8,1268.8 506.4,1110.7 829.7,1268.8 829.7,750.9 183.8,750.9 "/>
<circle class="st0" cx="502" cy="495.9" r="402.1"/>
<circle class="st1" cx="502" cy="495.9" r="322.9"/>
<g>
	
		<image style="overflow:visible;opacity:0.4;" width="4079" height="4079" xlink:href="D4ABF61E.png"  transform="matrix(0.24 0 0 0.24 13.6592 7.6842)">
	</image>
	<g>
		<g>
			<path class="st1" d="M867.7,173.6C778.4,72.3,647.7,8.4,502,8.4C232.7,8.4,14.5,226.7,14.5,495.9c0,145.7,63.9,276.4,165.2,365.7
				c85.9,75.8,198.8,121.8,322.3,121.8c269.3,0,487.5-218.3,487.5-487.5C989.5,372.3,943.5,259.5,867.7,173.6z M502,898
				C279.9,898,99.9,718,99.9,495.9S279.9,93.8,502,93.8s402.1,180,402.1,402.1S724.1,898,502,898z"/>
		</g>
	</g>
</g>
<g class="st2">
	
		<image style="overflow:visible;opacity:0.5;" width="3390" height="3390" xlink:href="D4ABF622.png"  transform="matrix(0.24 0 0 0.24 19.0243 11.1293)">
	</image>
	<g>
		<path class="st3" d="M798.5,106.8L114.8,790.5c-24.6-31.8-45.3-66.8-61.5-104.2l66.2-66.2l508.6-508.6l66.2-66.2
			C731.6,61.5,766.6,82.2,798.5,106.8z"/>
	</g>
</g>
<g class="st2">
	
		<image style="overflow:visible;opacity:0.5;" width="2689" height="2688" xlink:href="D4ABF625.png"  transform="matrix(0.24 0 0 0.24 -19.6157 -27.5107)">
	</image>
	<g>
		<path class="st3" d="M591.4,13.9L21.8,583.4c-3.7-19.7-6.2-39.8-7.4-60.2l88.7-88.7l428-428C551.6,7.7,571.7,10.2,591.4,13.9z"/>
	</g>
</g>
<path class="st4" d="M989.5,495.9c0,269.3-218.3,487.5-487.5,487.5c-123.6,0-236.4-46-322.3-121.8l688-688
	C943.5,259.5,989.5,372.3,989.5,495.9z"/>
<g>
	
		<image style="overflow:visible;opacity:0.8;" width="1998" height="2077" xlink:href="D4ABF626.png"  transform="matrix(0.24 0 0 0.24 265.4721 281.0971)">
	</image>
	<g>
		<g>
			<path class="st3" d="M323.1,546.1c-8.1,0-16.2-3.1-22.3-9.2c-12.3-12.3-12.3-32.3,0-44.7l63.2-63.3l-73.8-78.4
				c-12-12.7-11.4-32.7,1.3-44.7c12.7-12,32.7-11.4,44.7,1.3l115.8,123L345.4,536.9C339.2,543,331.2,546.1,323.1,546.1z"/>
			<path class="st3" d="M506.8,761.3c-17.4,0-31.6-14.1-31.6-31.6l-0.1-274.5c0-17.5,14.1-31.6,31.6-31.6c0,0,0,0,0,0
				c17.4,0,31.6,14.1,31.6,31.6l0.1,274.5C538.4,747.2,524.2,761.3,506.8,761.3C506.8,761.3,506.8,761.3,506.8,761.3z"/>
			<path class="st3" d="M685.1,546c-8.1,0-16.2-3.1-22.3-9.2L556.2,430.2l115.8-123.1c12-12.7,31.9-13.3,44.7-1.4
				c12.7,12,13.3,32,1.4,44.7l-73.8,78.4l63.3,63.2c12.3,12.3,12.3,32.3,0,44.7C701.3,542.9,693.2,546,685.1,546z"/>
		</g>
	</g>
</g>
<path class="st3" d="M792.8,165.2c-1.4,0-2.8-0.5-4-1.4C787.4,162.6,647.9,48.8,535,60.9c-3.5,0.4-6.5-2.1-6.9-5.5
	c-0.4-3.4,2.1-6.5,5.5-6.9c118.1-12.7,257.2,100.8,263.1,105.6c2.7,2.2,3,6.1,0.8,8.8C796.4,164.4,794.6,165.2,792.8,165.2z"/>
</svg>
