<svg xmlns="http://www.w3.org/2000/svg" width="25.646" height="25.646" viewBox="0 0 25.646 25.646"><path d="M25.646,12.826A12.823,12.823,0,1,0,12.823,25.649,12.823,12.823,0,0,0,25.646,12.826Z" transform="translate(0 -0.003)" fill="#2b75ba"/><g transform="translate(9.02 3.57)"><path d="M181.786,167.882a.259.259,0,0,0-.324-.088,30.16,30.16,0,0,1-3,1.293.25.25,0,0,1-.033-.038.339.339,0,0,1-.057-.208,38.218,38.218,0,0,1,1.612-6.5,22.6,22.6,0,0,0,1.006-3.852.98.98,0,0,0-.355-.783,1.4,1.4,0,0,0-.916-.274,4.8,4.8,0,0,0-2.282.747,12.265,12.265,0,0,0-2.863,2.455.258.258,0,0,0,.289.413c.364-.148,2.192-.9,2.458-1.065a1.121,1.121,0,0,1,.561-.206h.014a.274.274,0,0,1,0,.048,1.953,1.953,0,0,1-.1.553c-1.558,5.047-2.315,8.141-2.315,9.459a1.573,1.573,0,0,0,.384,1.113,1.361,1.361,0,0,0,1.041.42,3.633,3.633,0,0,0,1.71-.587,19.932,19.932,0,0,0,3.12-2.57A.258.258,0,0,0,181.786,167.882Z" transform="translate(-174.511 -152.868)" fill="#fff"/><path d="M264.17,69.468a1.3,1.3,0,0,0-.968-.393,1.648,1.648,0,0,0-1.25.567,1.93,1.93,0,0,0-.514,1.35,1.428,1.428,0,0,0,.378,1.023,1.27,1.27,0,0,0,.955.4,1.651,1.651,0,0,0,1.243-.6,1.973,1.973,0,0,0,.536-1.364A1.361,1.361,0,0,0,264.17,69.468Z" transform="translate(-256.946 -69.075)" fill="#fff"/></g></svg>