<?xml version="1.0" standalone="no"?>
<!DOCTYPE svg PUBLIC "-//W3C//DTD SVG 1.1//EN" "http://www.w3.org/Graphics/SVG/1.1/DTD/svg11.dtd" >
<svg xmlns="http://www.w3.org/2000/svg" xmlns:xlink="http://www.w3.org/1999/xlink" version="1.1">
<metadata>
Created by FontForge 20170731 at Thu Feb 11 12:00:20 2021
 By Aleksey,,,
Copyright 1990 as an unpublished work by Bitstream Inc.  All rights reserved.  Confidential.
</metadata>
<defs>
<font id="BankGothicBT-Medium" horiz-adv-x="1024" >
  <font-face 
    font-family="Bank Gothic"
    font-weight="500"
    font-stretch="normal"
    units-per-em="2048"
    panose-1="0 0 0 0 0 0 0 0 0 0"
    ascent="1638"
    descent="-410"
    x-height="866"
    cap-height="1057"
    bbox="-342 -483 2544 1638"
    underline-thickness="143"
    underline-position="-312"
    unicode-range="U+0020-FB02"
  />
<missing-glyph horiz-adv-x="792" 
 />
    <glyph glyph-name=".notdef" horiz-adv-x="792" 
 />
    <glyph glyph-name=".null" horiz-adv-x="0" 
 />
    <glyph glyph-name="nonmarkingreturn" horiz-adv-x="682" 
 />
    <glyph glyph-name="space" unicode=" " horiz-adv-x="792" 
 />
    <glyph glyph-name="exclam" unicode="!" horiz-adv-x="786" 
d="M309 430l-76 627h316l-76 -627h-164zM463 293h35q31 0 41 -15.5t10 -54.5v-153q0 -49 -15.5 -59.5t-70.5 -10.5h-146h-34q-31 0 -41.5 15.5t-10.5 54.5v153q0 49 15.5 59.5t70.5 10.5h146z" />
    <glyph glyph-name="quotedbl" unicode="&#x22;" horiz-adv-x="614" 
d="M229 1436v-555h-139v555h139zM524 1436v-555h-139v555h139z" />
    <glyph glyph-name="numbersign" unicode="#" horiz-adv-x="1574" 
d="M924 1458l-162 -454h256l164 454h164l-160 -454h301l-51 -146h-303l-93 -264h322l-51 -145h-322l-162 -453h-165l161 453h-258l-162 -453h-165l159 453h-309l53 145h310l92 264h-330l51 146h332l162 454h166zM969 858h-260l-93 -264h261z" />
    <glyph glyph-name="dollar" unicode="$" horiz-adv-x="1583" 
d="M1171 905h-280v-280h229q152 0 208 -51.5t56 -198.5v-125q0 -147 -56 -198.5t-208 -51.5h-229v-266h-170v266h-260q-142 0 -202 47t-60 174v45l204 35v-141h318v280h-219q-151 0 -206.5 51.5t-55.5 198.5v117q0 147 55.5 198.5t206.5 51.5h219v209h170v-209h211
q139 0 200.5 -46t61.5 -161v-47l-193 -43v145zM721 625v280h-295v-280h295zM891 160h305v280h-305v-280z" />
    <glyph glyph-name="percent" unicode="%" horiz-adv-x="1636" 
d="M90 778q0 132 92 222t224 90t222.5 -90.5t90.5 -221.5q0 -129 -93.5 -223t-219.5 -94q-128 0 -222 94t-94 223zM229 774q0 -71 51 -122.5t123 -51.5q73 0 125 51t52 123t-52.5 124t-124.5 52q-70 0 -122 -52.5t-52 -123.5zM1055 281q0 -71 51 -123t123 -52
q73 0 124.5 51.5t51.5 123.5t-52 124t-124 52q-70 0 -122 -52.5t-52 -123.5zM915 283q0 132 91 222.5t223 90.5t223.5 -91t91.5 -222q0 -128 -94 -222t-221 -94q-128 0 -221 93.5t-93 222.5zM1329 1090l-891 -1123h-133l891 1123h133z" />
    <glyph glyph-name="ampersand" unicode="&#x26;" horiz-adv-x="1687" 
d="M449 0q-152 0 -208.5 51.5t-56.5 198.5v69q0 77 27.5 114.5t103.5 82.5l215 129q-90 75 -90 160v59q0 110 61 151.5t201 41.5h213q147 0 205 -44t58 -169v-64l-191 -32v141h-346v-76l498 -414l245 205l140 -121l-244 -202l334 -281h-322l-174 147l-94 -84
q-48 -41 -87 -52t-112 -11h-376zM391 184h490l98 84l-317 264l-271 -167v-181z" />
    <glyph glyph-name="quotesingle" unicode="'" horiz-adv-x="317" 
d="M229 1436v-555h-139v555h139z" />
    <glyph glyph-name="parenleft" unicode="(" horiz-adv-x="677" 
d="M346 1098h219q-198 -296 -198 -570q0 -273 198 -569h-219q-176 272 -176 569q0 298 176 570z" />
    <glyph glyph-name="parenright" unicode=")" horiz-adv-x="677" 
d="M332 1098q178 -275 178 -570q0 -294 -178 -569h-219q198 296 198 569q0 274 -198 570h219z" />
    <glyph glyph-name="asterisk" unicode="*" 
d="M512 657l-135 -245l-121 88l193 205l-273 53l45 139l252 -121l-29 281h136l-31 -281l252 121l47 -139l-275 -53l193 -205l-119 -88z" />
    <glyph glyph-name="plus" unicode="+" horiz-adv-x="1705" 
d="M924 1221v-541h528v-139h-528v-541h-142v541h-528v139h528v541h142z" />
    <glyph glyph-name="comma" unicode="," horiz-adv-x="677" 
d="M412 317h34q29 0 39.5 -17.5t10.5 -57.5v-211l-203 -303h-121l174 311h-82h-35q-29 0 -39 17.5t-10 58.5v127q0 54 14 64.5t70 10.5h148z" />
    <glyph glyph-name="hyphen" unicode="-" horiz-adv-x="675" 
d="M98 440v211h477v-211h-477z" />
    <glyph glyph-name="period" unicode="." horiz-adv-x="677" 
d="M412 317h37q29 0 39 -17t10 -58v-166q0 -54 -15 -65t-71 -11h-146h-37q-29 0 -39 17.5t-10 58.5v166q0 54 14.5 64.5t71.5 10.5h146z" />
    <glyph glyph-name="slash" unicode="/" horiz-adv-x="569" 
d="M-49 -33l532 1123h135l-536 -1123h-131z" />
    <glyph glyph-name="zero" unicode="0" horiz-adv-x="1583" 
d="M193 807q0 146 50.5 198t190.5 52h715q140 0 191 -52t51 -198v-557q0 -146 -51 -198t-191 -52h-715q-140 0 -190.5 52t-50.5 198v557zM414 190h755v687h-755v-687z" />
    <glyph glyph-name="one" unicode="1" horiz-adv-x="1583" 
d="M725 0v856h-225v141l448 68v-1065h-223z" />
    <glyph glyph-name="two" unicode="2" horiz-adv-x="1583" 
d="M287 850q0 123 51.5 165t189.5 42h543q138 0 190 -42t52 -165v-68q0 -61 -15 -98.5t-40.5 -60t-81.5 -56.5l-621 -377h614v156l195 -55v-84q0 -123 -52 -165t-190 -42h-889v96q0 61 23.5 100t110.5 93l731 450v138h-602v-218l-209 54v137z" />
    <glyph glyph-name="three" unicode="3" horiz-adv-x="1583" 
d="M467 0q-138 0 -190 42t-52 165v86l217 45v-148h570q61 0 81.5 19t20.5 76v77q0 57 -20.5 77t-81.5 20h-357v172h318q61 0 80.5 19t19.5 77v53q0 58 -19.5 77.5t-80.5 19.5h-522v-132l-209 39v66q0 123 51.5 165t189.5 42h572q138 0 189.5 -42t51.5 -165v-96
q0 -94 -45 -138t-159 -63q126 -12 185.5 -64t59.5 -151v-111q0 -126 -53.5 -176.5t-202.5 -50.5h-614z" />
    <glyph glyph-name="four" unicode="4" horiz-adv-x="1583" 
d="M967 410v473l-578 -473h578zM967 -12v245h-801v177l792 659h232v-659h256v-177h-256v-245h-223z" />
    <glyph glyph-name="five" unicode="5" horiz-adv-x="1583" 
d="M266 471l60 586h913l-18 -180h-738l-24 -205q263 26 428 26q524 0 524 -358q0 -189 -140.5 -271.5t-441.5 -82.5q-330 0 -510 43l-53 204q303 -55 557 -55q193 0 277 38t84 134q0 91 -82.5 127.5t-263.5 36.5q-245 0 -572 -43z" />
    <glyph glyph-name="six" unicode="6" horiz-adv-x="1583" 
d="M471 637q236 37 467 37q249 0 347.5 -57.5t98.5 -215.5v-143q0 -133 -88.5 -195.5t-273.5 -62.5h-447q-198 0 -273 69t-75 257v139q0 295 204.5 456.5t576.5 161.5q25 0 75 -4l146 -170h-68q-156 0 -263.5 -11.5t-197 -41t-144.5 -83t-85 -136.5zM457 477q-4 -25 -4 -61
q0 -51 2 -81t10 -59t21.5 -42.5t39 -25t60 -15t86.5 -3.5h295q112 0 152 27.5t40 99.5v58q0 77 -48.5 102t-184.5 25q-216 0 -469 -25z" />
    <glyph glyph-name="seven" unicode="7" horiz-adv-x="1583" 
d="M569 -18l570 895h-699v-228l-223 39v369h1174v-170l-553 -905h-269z" />
    <glyph glyph-name="eight" unicode="8" horiz-adv-x="1583" 
d="M1061 459h-541q-61 0 -80.5 -19.5t-19.5 -77.5v-77q0 -58 19 -76.5t81 -18.5h541q61 0 80.5 19t19.5 76v77q0 58 -19.5 77.5t-80.5 19.5zM1038 877h-493q-61 0 -82 -20t-21 -77v-53q0 -57 21 -76.5t82 -19.5h493q61 0 81 19.5t20 76.5v53q0 58 -20 77.5t-81 19.5z
M1120 1057q138 0 190 -42t52 -165v-96q0 -92 -45 -137.5t-156 -67.5q115 -12 170 -63.5t55 -147.5v-111q0 -126 -54.5 -176.5t-203.5 -50.5h-675q-149 0 -202.5 50.5t-53.5 176.5v111q0 96 55 147.5t170 63.5q-111 22 -157 67.5t-46 137.5v96q0 123 52 165t190 42h659z" />
    <glyph glyph-name="nine" unicode="9" horiz-adv-x="1583" 
d="M1145 582q6 37 6 63q0 79 -5.5 118t-29 68t-66 37.5t-120.5 8.5h-293q-113 0 -154 -28.5t-41 -103.5v-59q0 -80 49.5 -105.5t186.5 -25.5q194 0 467 27zM1133 420q-224 -35 -467 -35q-249 0 -348 57t-99 215v142q0 133 88 195.5t273 62.5h446q198 0 273 -69t75 -257v-139
q0 -295 -204 -456t-576 -161q-51 0 -76 2l-145 170h67q124 0 216 7t174 25t138.5 48.5t98.5 78.5t66 114z" />
    <glyph glyph-name="colon" unicode=":" horiz-adv-x="677" 
d="M412 317h37q29 0 39 -17t10 -58v-166q0 -54 -15 -65t-71 -11h-146h-37q-29 0 -39 17.5t-10 58.5v166q0 54 14.5 64.5t71.5 10.5h146zM412 868h37q29 0 39 -17t10 -58v-166q0 -54 -15 -65t-71 -11h-146h-37q-29 0 -39 17.5t-10 58.5v166q0 54 14.5 64.5t71.5 10.5h146z
" />
    <glyph glyph-name="semicolon" unicode=";" horiz-adv-x="677" 
d="M412 317h34q29 0 39.5 -17.5t10.5 -57.5v-211l-203 -303h-121l174 311h-82h-35q-29 0 -39 17.5t-10 58.5v127q0 54 14 64.5t70 10.5h148zM412 868h34q29 0 39.5 -17.5t10.5 -57.5v-166q0 -54 -14 -65t-70 -11h-148h-35q-29 0 -39 17.5t-10 58.5v166q0 54 14 64.5t70 10.5
h148z" />
    <glyph glyph-name="less" unicode="&#x3c;" horiz-adv-x="1705" 
d="M1442 1006l-969 -396l969 -393v-154l-1178 484v129l1178 483v-153z" />
    <glyph glyph-name="equal" unicode="=" horiz-adv-x="1705" 
d="M1452 879v-140h-1198v140h1198zM1452 481v-139h-1198v139h1198z" />
    <glyph glyph-name="greater" unicode="&#x3e;" horiz-adv-x="1705" 
d="M1442 676v-129l-1178 -484v154l971 393l-971 396v153z" />
    <glyph glyph-name="question" unicode="?" horiz-adv-x="1355" 
d="M541 428v147l354 216v92h-471v-133l-207 32v58q0 217 221 217h418q128 0 191 -48t63 -149v-168l-358 -209v-55h-211zM717 293h35q31 0 40 -15t9 -55v-153q0 -50 -14.5 -60t-69.5 -10h-148h-32q-31 0 -41.5 15.5t-10.5 54.5v153q0 50 14.5 60t69.5 10h148z" />
    <glyph glyph-name="at" unicode="@" horiz-adv-x="2048" 
d="M1190 475l59 236q-17 89 -68.5 136.5t-129.5 47.5q-90 0 -165 -59.5t-118 -163t-43 -226.5q0 -106 48.5 -162.5t137.5 -56.5q96 0 173.5 68t105.5 180zM1284 854l57 115h132l-146 -576q-8 -33 -8 -59q0 -94 100 -94q101 0 209 102q79 75 124.5 185.5t45.5 234.5
q0 257 -189 419t-501 162q-266 0 -457 -114t-296 -299.5t-105 -409.5q0 -177 61.5 -307.5t192.5 -230.5q99 -75 234.5 -117.5t289.5 -42.5q169 0 329 49t292 141l55 -82q-296 -223 -664 -223q-382 0 -628 187q-306 236 -306 628q0 335 203 582q145 177 350.5 269.5
t456.5 92.5q166 0 312.5 -46t250.5 -126q129 -100 197 -231t68 -283q0 -175 -63 -315.5t-185 -235.5q-139 -112 -316 -112q-200 0 -200 157v19q-108 -174 -301 -174q-152 0 -233 85.5t-81 246.5q0 156 63.5 283t172.5 198.5t241 71.5q170 0 242 -150z" />
    <glyph glyph-name="A" unicode="A" horiz-adv-x="1579" 
d="M68 0l598 1057h237l606 -1057h-276l-127 231h-670l-123 -231h-245zM541 422h463l-228 430z" />
    <glyph glyph-name="B" unicode="B" horiz-adv-x="1626" 
d="M270 0v1057h906q123 0 180 -48t57 -157v-129q0 -76 -47 -121.5t-135 -56.5q92 -12 141 -65t49 -138v-135q0 -207 -311 -207h-840zM1073 459h-561v-269h561q66 0 92.5 19.5t26.5 75.5v80q0 56 -26.5 75t-92.5 19zM1073 885h-561v-252h561q60 0 86.5 16t26.5 60v100
q0 44 -26.5 60t-86.5 16z" />
    <glyph glyph-name="C" unicode="C" horiz-adv-x="1640" 
d="M1157 868h-663v-669h663v227l246 -51v-125q0 -147 -55.5 -198.5t-206.5 -51.5h-631q-151 0 -206.5 51.5t-55.5 198.5v557q0 147 55.5 198.5t206.5 51.5h631q151 0 206.5 -51.5t55.5 -198.5v-100l-246 -39v200z" />
    <glyph glyph-name="D" unicode="D" horiz-adv-x="1734" 
d="M270 0v1057h680q293 0 448.5 -137t155.5 -385q0 -149 -61 -267t-172 -186q-133 -82 -434 -82h-617zM516 199h318q243 0 354.5 75t111.5 265q0 162 -87.5 245.5t-260.5 83.5h-436v-669z" />
    <glyph glyph-name="E" unicode="E" horiz-adv-x="1546" 
d="M270 0v1057h1082v-180h-836v-236h488v-180h-488v-262h846v-199h-1092z" />
    <glyph glyph-name="F" unicode="F" horiz-adv-x="1374" 
d="M270 0v1057h1069v-185h-823v-278h445v-193h-445v-401h-246z" />
    <glyph glyph-name="G" unicode="G" horiz-adv-x="1751" 
d="M1262 868h-768v-669h768v235h-402v180h641v-364q0 -147 -55.5 -198.5t-206.5 -51.5h-729q-151 0 -206.5 51.5t-55.5 198.5v557q0 147 55.5 198.5t206.5 51.5h729q148 0 205 -50t57 -190v-24l-239 -43v118z" />
    <glyph glyph-name="H" unicode="H" horiz-adv-x="1802" 
d="M270 0v1057h246v-410h768v410h248v-1057h-248v455h-768v-455h-246z" />
    <glyph glyph-name="I" unicode="I" horiz-adv-x="786" 
d="M270 0v1057h246v-1057h-246z" />
    <glyph glyph-name="J" unicode="J" horiz-adv-x="1366" 
d="M424 0q-151 0 -206.5 51.5t-55.5 198.5v219l248 47v-317h483v858h246v-807q0 -147 -55.5 -198.5t-206.5 -51.5h-453z" />
    <glyph glyph-name="K" unicode="K" horiz-adv-x="1626" 
d="M270 0v1057h248v-441l586 441h356l-700 -498l786 -559h-395l-633 465v-465h-248z" />
    <glyph glyph-name="L" unicode="L" horiz-adv-x="1398" 
d="M270 0v1057h246v-858h793v-199h-1039z" />
    <glyph glyph-name="M" unicode="M" horiz-adv-x="1896" 
d="M268 0v1057h199l498 -639l487 639h197v-1057h-228v653q0 31 9 113q-38 -78 -62 -111l-397 -528h-49l-398 530q-42 56 -63 109q6 -65 6 -113v-653h-199z" />
    <glyph glyph-name="N" unicode="N" horiz-adv-x="1779" 
d="M268 0v1057h168l744 -623q70 -57 120 -115q-10 147 -10 183v555h221v-1057h-168l-776 653q-53 46 -88 86q10 -102 10 -168v-571h-221z" />
    <glyph glyph-name="O" unicode="O" horiz-adv-x="1798" 
d="M494 199h811v669h-811v-669zM248 807q0 147 55.5 198.5t206.5 51.5h778q151 0 206.5 -51.5t55.5 -198.5v-557q0 -147 -55.5 -198.5t-206.5 -51.5h-778q-151 0 -206.5 51.5t-55.5 198.5v557z" />
    <glyph glyph-name="P" unicode="P" horiz-adv-x="1521" 
d="M270 0v1057h906q123 0 180 -48t57 -157v-236q0 -109 -57 -156.5t-180 -47.5h-664v-412h-242zM1065 874h-553v-280h553q61 0 86 17t25 67v113q0 50 -25 66.5t-86 16.5z" />
    <glyph glyph-name="Q" unicode="Q" horiz-adv-x="1798" 
d="M494 199h362l-98 229l178 72l143 -301h226v669h-811v-669zM248 807q0 147 55.5 198.5t206.5 51.5h778q151 0 206.5 -51.5t55.5 -198.5v-557q0 -147 -55.5 -198.5t-206.5 -51.5h-114l133 -272h-244l-119 272h-434q-151 0 -206.5 51.5t-55.5 198.5v557z" />
    <glyph glyph-name="R" unicode="R" horiz-adv-x="1642" 
d="M270 0v1057h906q123 0 180 -48t57 -157v-248q0 -109 -57 -157t-180 -48h-140l488 -399h-353l-426 399h-233v-399h-242zM1065 874h-553v-294h553q61 0 86 17t25 67v127q0 50 -25 66.5t-86 16.5z" />
    <glyph glyph-name="S" unicode="S" horiz-adv-x="1656" 
d="M1186 872h-692v-227h659q152 0 208 -51.5t56 -198.5v-145q0 -147 -56 -198.5t-208 -51.5h-653q-152 0 -208 51.5t-56 198.5v29l217 45v-125h747v241h-659q-151 0 -206.5 51.5t-55.5 198.5v117q0 147 55.5 198.5t206.5 51.5h600q145 0 203.5 -49.5t58.5 -182.5v-22
l-217 -51v120z" />
    <glyph glyph-name="T" unicode="T" horiz-adv-x="1280" 
d="M762 868v-868h-246v868h-485v189h1218v-189h-487z" />
    <glyph glyph-name="U" unicode="U" horiz-adv-x="1732" 
d="M516 1057v-858h701v858h245v-807q0 -147 -55.5 -198.5t-206.5 -51.5h-668q-151 0 -206.5 51.5t-55.5 198.5v807h246z" />
    <glyph glyph-name="V" unicode="V" horiz-adv-x="1394" 
d="M627 0l-611 1057h281l428 -764l408 764h245l-581 -1057h-170z" />
    <glyph glyph-name="W" unicode="W" horiz-adv-x="1896" 
d="M487 0l-407 1057h254l268 -709l281 709h172l286 -709l256 709h220l-408 -1057h-166l-291 731l-295 -731h-170z" />
    <glyph glyph-name="X" unicode="X" horiz-adv-x="1470" 
d="M109 0l501 543l-510 514h326l338 -359l321 359h283l-461 -486l570 -571h-334l-387 410l-357 -410h-290z" />
    <glyph glyph-name="Y" unicode="Y" horiz-adv-x="1376" 
d="M565 0v473l-549 584h328l363 -406l364 406h289l-547 -578v-479h-248z" />
    <glyph glyph-name="Z" unicode="Z" horiz-adv-x="1396" 
d="M125 0v115l739 753h-665v189h1061v-105l-750 -753h750v-199h-1135z" />
    <glyph glyph-name="bracketleft" unicode="[" horiz-adv-x="677" 
d="M645 -33h-452v1123h452v-146h-256v-825h256v-152z" />
    <glyph glyph-name="backslash" unicode="\" horiz-adv-x="569" 
d="M86 1090l532 -1123h-131l-536 1123h135z" />
    <glyph glyph-name="bracketright" unicode="]" horiz-adv-x="677" 
d="M33 -33v152h256v825h-256v146h452v-1123h-452z" />
    <glyph glyph-name="asciicircum" unicode="^" horiz-adv-x="2048" 
d="M1116 1458l510 -557h-180l-422 420l-424 -420h-180l510 557h186z" />
    <glyph glyph-name="underscore" unicode="_" 
d="M1024 -340v-143h-1024v143h1024z" />
    <glyph glyph-name="grave" unicode="`" 
d="M659 979h-131l-295 346h222z" />
    <glyph glyph-name="a" unicode="a" horiz-adv-x="1323" 
d="M471 348h397l-202 361zM61 0l514 866h203l522 -866h-237l-109 190h-573l-109 -190h-211z" />
    <glyph glyph-name="b" unicode="b" horiz-adv-x="1345" 
d="M874 377h-473v-221h473q57 0 80 16t23 61v66q0 46 -23.5 62t-79.5 16zM874 725h-473v-205h473q50 0 72.5 13t22.5 49v82q0 37 -21.5 49t-73.5 12zM193 0v866h778q106 0 155.5 -38.5t49.5 -129.5v-104q0 -60 -38.5 -98t-109.5 -50q73 -12 113.5 -55.5t40.5 -109.5v-111
q0 -170 -269 -170h-720z" />
    <glyph glyph-name="c" unicode="c" horiz-adv-x="1318" 
d="M952 707h-569v-541h569v184l213 -43v-102q0 -120 -48 -162.5t-179 -42.5h-541q-131 0 -178 42.5t-47 162.5v457q0 120 47.5 162t177.5 42h541q131 0 179 -41.5t48 -162.5v-84l-213 -31v160z" />
    <glyph glyph-name="d" unicode="d" horiz-adv-x="1421" 
d="M193 0v866h583q253 0 386.5 -113t133.5 -317q0 -436 -573 -436h-530zM406 162h272q105 0 176.5 13t124 44.5t76.5 87t24 139.5q0 134 -75 199.5t-226 65.5h-372v-549z" />
    <glyph glyph-name="e" unicode="e" horiz-adv-x="1245" 
d="M193 0v866h929v-153h-716v-189h417v-149h-417v-213h727v-162h-940z" />
    <glyph glyph-name="f" unicode="f" horiz-adv-x="1126" 
d="M193 0v866h919v-155h-706v-226h380v-161h-380v-324h-213z" />
    <glyph glyph-name="g" unicode="g" horiz-adv-x="1417" 
d="M1042 707h-659v-541h659v184h-344v154h551v-299q0 -120 -47.5 -162.5t-177.5 -42.5h-627q-130 0 -177.5 42.5t-47.5 162.5v457q0 121 47.5 162.5t177.5 41.5h627q127 0 176 -40t49 -154v-23l-207 -35v93z" />
    <glyph glyph-name="h" unicode="h" horiz-adv-x="1470" 
d="M193 0v866h213v-329h659v329h211v-866h-211v365h-659v-365h-213z" />
    <glyph glyph-name="i" unicode="i" horiz-adv-x="595" 
d="M193 0v866h210v-866h-210z" />
    <glyph glyph-name="j" unicode="j" horiz-adv-x="1146" 
d="M340 0q-131 0 -179 42.5t-48 162.5v180l213 39v-262h413v704h213v-661q0 -120 -48 -162.5t-179 -42.5h-385z" />
    <glyph glyph-name="k" unicode="k" horiz-adv-x="1269" 
d="M193 0v866h213v-350l505 350h306l-599 -401l666 -465h-334l-544 391v-391h-213z" />
    <glyph glyph-name="l" unicode="l" horiz-adv-x="1130" 
d="M193 0v866h213v-704h679v-162h-892z" />
    <glyph glyph-name="m" unicode="m" horiz-adv-x="1570" 
d="M193 0v866h169l424 -514l422 514h170v-866h-196v596l-387 -492h-41l-392 478v-582h-169z" />
    <glyph glyph-name="n" unicode="n" horiz-adv-x="1458" 
d="M193 0v866h145l735 -575v575h191v-866h-146l-733 584v-584h-192z" />
    <glyph glyph-name="o" unicode="o" horiz-adv-x="1464" 
d="M172 662q0 122 47.5 163t177.5 41h670q130 0 177.5 -41t47.5 -163v-457q0 -121 -47.5 -163t-177.5 -42h-670q-131 0 -178 41.5t-47 163.5v457zM383 166h698v541h-698v-541z" />
    <glyph glyph-name="p" unicode="p" horiz-adv-x="1286" 
d="M883 717h-482v-230h482q50 0 73 14.5t23 55.5v90q0 41 -23 55.5t-73 14.5zM193 0v866h780q106 0 154.5 -38.5t48.5 -129.5v-192q0 -90 -48.5 -129t-154.5 -39h-572v-338h-208z" />
    <glyph glyph-name="q" unicode="q" horiz-adv-x="1464" 
d="M383 166h317l-90 186l152 58l119 -244h200v541h-698v-541zM172 662q0 123 47.5 163.5t177.5 40.5h670q130 0 177.5 -40t47.5 -164v-455q0 -120 -48 -162.5t-177 -42.5h-102l116 -223h-211l-98 223h-375q-130 0 -177.5 42.5t-47.5 162.5v455z" />
    <glyph glyph-name="r" unicode="r" horiz-adv-x="1331" 
d="M193 0v866h780q106 0 154.5 -39t48.5 -129v-204q0 -88 -48.5 -127t-154.5 -39h-119l412 -328h-303l-363 328h-199v-328h-208zM883 717h-482v-240h482q50 0 73 14.5t23 55.5v100q0 41 -23 55.5t-73 14.5z" />
    <glyph glyph-name="s" unicode="s" horiz-adv-x="1357" 
d="M993 711h-596v-183h564q131 0 178 -41.5t47 -162.5v-119q0 -120 -47.5 -162.5t-177.5 -42.5h-564q-131 0 -179 42.5t-48 162.5v24l188 35v-102h637v198h-561q-130 0 -178.5 42t-48.5 163v97q0 121 48.5 162.5t178.5 41.5h514q125 0 176.5 -39t51.5 -149v-21l-183 -39v93z
" />
    <glyph glyph-name="t" unicode="t" horiz-adv-x="1208" 
d="M709 711v-711h-211v711h-418v155h1048v-155h-419z" />
    <glyph glyph-name="u" unicode="u" horiz-adv-x="1411" 
d="M403 866v-704h603v704h213v-661q0 -120 -48.5 -162.5t-179.5 -42.5h-573q-130 0 -177.5 42.5t-47.5 162.5v661h210z" />
    <glyph glyph-name="v" unicode="v" horiz-adv-x="1294" 
d="M598 0l-524 866h239l367 -628l346 628h219l-502 -866h-145z" />
    <glyph glyph-name="w" unicode="w" horiz-adv-x="1615" 
d="M426 0l-352 866h221l227 -604l244 604h145l242 -604l223 604h191l-348 -866h-144l-250 612l-254 -612h-145z" />
    <glyph glyph-name="x" unicode="x" horiz-adv-x="1306" 
d="M104 0l428 444l-436 422h283l291 -280l274 280h244l-395 -397l487 -469h-289l-332 324l-305 -324h-250z" />
    <glyph glyph-name="y" unicode="y" horiz-adv-x="1214" 
d="M520 0v389l-473 477h285l309 -323l313 323h248l-471 -473v-393h-211z" />
    <glyph glyph-name="z" unicode="z" horiz-adv-x="1261" 
d="M143 0v94l635 617h-571v155h913v-86l-647 -620h647v-160h-977z" />
    <glyph glyph-name="braceleft" unicode="{" 
d="M866 1327h-41q-125 0 -163.5 -46.5t-38.5 -182.5v-242q0 -150 -41 -222.5t-160 -103.5q121 -31 161 -102.5t40 -222.5v-242q0 -70 7.5 -110t29.5 -69t61.5 -39.5t105.5 -10.5h39v-148h-43q-98 0 -162 10t-110 39q-63 38 -81.5 107t-18.5 201v245q0 147 -54 209t-186 62
q-7 0 -21.5 -1t-21.5 -1v149q8 0 23 -1t22 -1q131 0 184.5 60.5t53.5 207.5v246q0 132 18.5 200.5t81.5 106.5q86 52 278 52h37v-150z" />
    <glyph glyph-name="bar" unicode="|" 
d="M588 1565v-2048h-150v2048h150z" />
    <glyph glyph-name="braceright" unicode="}" 
d="M575 1118v-246q0 -147 53.5 -207.5t184.5 -60.5q7 0 22 1t23 1v-149q-7 0 -22 1t-21 1q-134 0 -187 -61.5t-53 -209.5v-245q0 -132 -18.5 -201t-81.5 -107q-46 -29 -110 -39t-162 -10h-43v148h39q126 0 165 47.5t39 183.5v240q0 150 40.5 222t160.5 103
q-119 31 -160 103.5t-41 222.5v242q0 135 -39 182t-165 47h-39v150h37q194 0 278 -52q63 -38 81.5 -106.5t18.5 -200.5z" />
    <glyph glyph-name="asciitilde" unicode="~" horiz-adv-x="1705" 
d="M1530 614q-203 -141 -389 -141q-22 0 -43 2t-44.5 6.5t-39 8t-43 12.5t-38 12.5t-42.5 14.5t-39 14q-66 23 -99 33t-87.5 21t-102.5 11q-88 0 -180 -38.5t-205 -118.5v155q212 144 387 144q118 0 291 -62q10 -4 56.5 -20.5t63 -21.5t51.5 -15t61.5 -13.5t54.5 -3.5
q92 0 184 38.5t203 117.5v-156z" />
    <glyph glyph-name="exclamdown" unicode="&#xa1;" horiz-adv-x="786" 
d="M471 627l78 -627h-318l78 627h162zM317 766h-34q-31 0 -41.5 15.5t-10.5 54.5v151q0 49 15.5 59.5t70.5 10.5h146h35q31 0 41 -15.5t10 -54.5v-151q0 -49 -15.5 -59.5t-70.5 -10.5h-146z" />
    <glyph glyph-name="cent" unicode="&#xa2;" horiz-adv-x="1583" 
d="M549 -207l72 207h-54q-89 0 -122 38t-33 128v381q0 94 39.5 128t154.5 34h258l58 168h110l-57 -168q120 0 158 -28.5t38 -123.5v-92l-180 -29v111h-71l-134 -381h205v139l180 -43v-133q0 -73 -37.5 -101t-127.5 -28h-275l-72 -207h-110zM678 166l131 381h-203v-381h72z
" />
    <glyph glyph-name="sterling" unicode="&#xa3;" horiz-adv-x="1583" 
d="M215 -25v211q124 10 176.5 61.5t52.5 160.5q0 4 -0.5 11.5t-1.5 21t-2 24.5h-227v162h215q-8 65 -8 135q0 156 78 225.5t250 69.5h358q138 0 209 -53t71 -152v-96l-206 -35v61q0 62 -34 83.5t-112 21.5h-233q-105 0 -140.5 -32t-35.5 -130q0 -51 8 -98h299v-162h-291
q-3 -127 -35 -211q264 -72 475 -72q112 0 149.5 25t37.5 108v41l200 -37v-75q0 -260 -340 -260q-249 0 -610 106q-68 -60 -135 -87.5t-150 -27.5h-18z" />
    <glyph glyph-name="currency" unicode="&#xa4;" horiz-adv-x="1241" 
d="M367 1219q115 86 254 86q141 0 256 -86l204 204l82 -80l-205 -206q82 -110 82 -252q0 -143 -82 -252l205 -205l-82 -82l-204 205q-117 -86 -254 -86q-141 0 -256 86l-205 -205l-82 82l207 205q-84 106 -84 252q0 139 84 252l-207 206l82 80zM926 887q0 125 -88.5 214
t-214.5 89t-215 -89t-89 -214q0 -126 89 -215.5t215 -89.5t214.5 89.5t88.5 215.5z" />
    <glyph glyph-name="yen" unicode="&#xa5;" horiz-adv-x="1583" 
d="M1167 1057h287l-276 -295h223v-133h-346l-148 -158h494v-133h-494v-338h-227v338h-496v133h496l-148 158h-348v133h224l-279 295h324l358 -416z" />
    <glyph glyph-name="brokenbar" unicode="&#xa6;" 
d="M588 1432v-758h-150v758h150zM588 408v-758h-150v758h150z" />
    <glyph glyph-name="section" unicode="&#xa7;" 
d="M270 539q0 -67 121 -133q77 -42 151 -64.5t117 -22.5q47 0 75 22t28 56q0 65 -144 142q-75 39 -145.5 59t-110.5 20q-43 0 -67.5 -22.5t-24.5 -56.5zM156 -43l118 111q116 -113 240 -113q59 0 95 26.5t36 65.5q0 19 -8.5 34.5t-20 27t-38 25t-47.5 22.5t-62 26
q-18 7 -27 11q-170 70 -243.5 132.5t-73.5 159.5q0 82 53.5 137t151.5 70q-115 72 -115 182q0 96 78.5 158t208.5 62q191 0 327 -121l-118 -105q-108 99 -203 99q-57 0 -90 -24t-33 -62q0 -42 39 -68t139 -65q73 -29 118.5 -49.5t92.5 -48t73 -54.5t42 -62.5t16 -78.5
q0 -77 -56.5 -133t-156.5 -76q59 -29 93 -82t34 -115q0 -98 -85 -165.5t-218 -67.5q-97 0 -192.5 37.5t-167.5 103.5z" />
    <glyph glyph-name="dieresis" unicode="&#xa8;" 
d="M240 1026v229h204v-229h-204zM580 1026v229h204v-229h-204z" />
    <glyph glyph-name="copyright" unicode="&#xa9;" horiz-adv-x="1705" 
d="M852 1464q309 0 524 -215q103 -103 159 -238t56 -284q0 -150 -55 -282t-158 -234q-109 -106 -245 -163.5t-281 -57.5q-146 0 -279 56.5t-239 162.5t-161.5 239t-55.5 279q0 147 56 281.5t163 242.5q103 103 235.5 158t280.5 55zM1493 727q0 130 -47.5 247t-136.5 206
q-188 188 -455 188q-264 0 -448 -184q-93 -93 -143 -211.5t-50 -245.5q0 -126 49 -242.5t141 -208.5q188 -188 451 -188q126 0 242.5 49t212.5 142q184 181 184 448zM1053 907q-12 77 -65.5 118.5t-139.5 41.5q-103 0 -164 -89t-61 -251q0 -158 62.5 -245t172.5 -87
q82 0 137 46.5t68 129.5h145q-9 -131 -107 -211.5t-249 -80.5q-181 0 -285 119.5t-104 334.5q0 201 109.5 323t285.5 122q142 0 236.5 -75.5t105.5 -195.5h-147z" />
    <glyph glyph-name="ordfeminine" unicode="&#xaa;" horiz-adv-x="872" 
d="M311 631h262l-133 217zM41 422l338 520h135l344 -520h-156l-71 115h-379l-72 -115h-139z" />
    <glyph glyph-name="guillemotleft" unicode="&#xab;" horiz-adv-x="1150" 
d="M551 131h-182l-242 303l242 301h182l-234 -301zM1024 131h-182l-242 303l242 301h182l-233 -301z" />
    <glyph glyph-name="logicalnot" unicode="&#xac;" horiz-adv-x="1705" 
d="M1452 860v-502h-137v363h-1061v139h1198z" />
    <glyph glyph-name="registered" unicode="&#xae;" horiz-adv-x="1705" 
d="M852 1464q151 0 285.5 -56t240.5 -163q102 -104 157.5 -237.5t55.5 -280.5q0 -309 -215 -518q-109 -106 -244 -162.5t-280 -56.5q-147 0 -280.5 57t-239.5 164q-105 106 -160 238t-55 278t58 282.5t165 245.5q206 209 512 209zM1493 721q0 275 -182 457
q-187 190 -457 190q-267 0 -446 -182q-94 -95 -144.5 -214t-50.5 -245q0 -257 188 -448q90 -92 206.5 -141.5t240.5 -49.5q265 0 459 188q90 87 138 202t48 243zM872 1159q349 0 349 -229q0 -89 -50 -147.5t-141 -77.5l187 -381h-177l-170 356h-155v-356h-158v835h315z
M844 1057h-129v-277h133q110 0 160.5 30.5t50.5 102.5q0 76 -52 110t-163 34z" />
    <glyph glyph-name="macron" unicode="&#xaf;" 
d="M236 1067v147h552v-147h-552z" />
    <glyph glyph-name="degree" unicode="&#xb0;" horiz-adv-x="673" 
d="M338 1456q119 0 203 -84.5t84 -204.5q0 -118 -83.5 -202t-205.5 -84q-121 0 -204 83t-83 203q0 121 85 205t204 84zM530 1169q0 80 -55.5 136.5t-136.5 56.5q-80 0 -137.5 -56t-57.5 -137q0 -82 56.5 -139t138.5 -57t137 57.5t55 138.5z" />
    <glyph glyph-name="plusminus" unicode="&#xb1;" horiz-adv-x="1705" 
d="M924 1192v-340h528v-139h-528v-340h-142v340h-528v139h528v340h142zM1452 170v-141h-1198v141h1198z" />
    <glyph glyph-name="twosuperior" unicode="&#xb2;" horiz-adv-x="1044" 
d="M188 932q0 74 34.5 99.5t125.5 25.5h359q91 0 125 -25.5t34 -99.5v-41q0 -52 -18 -75.5t-72 -53.5l-409 -225h405v92l129 -33v-49q0 -75 -34 -100t-126 -25h-587v57q0 37 15.5 60.5t72.5 56.5l483 270v82h-397v-131l-140 33v82z" />
    <glyph glyph-name="threesuperior" unicode="&#xb3;" horiz-adv-x="1044" 
d="M307 422q-91 0 -124 25t-33 100v51l143 27v-88h375q40 0 53.5 11t13.5 44v47q0 34 -13.5 45.5t-53.5 11.5h-236v105h211q40 0 53 11.5t13 45.5v33q0 34 -13 45.5t-53 11.5h-346v-80l-137 25v39q0 74 34 99.5t125 25.5h377q91 0 125.5 -25.5t34.5 -99.5v-58q0 -57 -30 -83
t-105 -37q84 -8 123 -38.5t39 -90.5v-66q0 -76 -35.5 -106.5t-134.5 -30.5h-406z" />
    <glyph glyph-name="acute" unicode="&#xb4;" 
d="M365 979l204 346h222l-295 -346h-131z" />
    <glyph glyph-name="mu" unicode="&#xb5;" horiz-adv-x="1150" 
d="M385 1071l-129 -600q-14 -63 -14 -133q0 -99 52 -153t148 -54q135 0 211 96t121 308l115 536h178l-156 -731q-22 -108 -22 -133q0 -37 17 -52.5t55 -15.5q20 0 32 2l-30 -143q-49 -10 -109 -10q-64 0 -97 29.5t-52 99.5q-88 -131 -271 -131q-82 0 -143 27.5t-113 88.5
l-110 -530h-181l318 1499h180z" />
    <glyph glyph-name="paragraph" unicode="&#xb6;" 
d="M958 1393h-120v-1393h-111v1393h-178v-1393h-111v782q-172 7 -272 102t-100 246q0 156 106.5 252.5t286.5 96.5h499v-86z" />
    <glyph glyph-name="periodcentered" unicode="&#xb7;" horiz-adv-x="677" 
d="M172 528q0 70 48 118t118 48q71 0 119.5 -48t48.5 -118q0 -68 -50 -118t-118 -50q-67 0 -116.5 50t-49.5 118z" />
    <glyph glyph-name="cedilla" unicode="&#xb8;" 
d="M287 -434v119q165 -43 256 -43q108 0 108 75q0 42 -35 61t-108 19q-6 0 -20 -1t-21 -1v205h90v-94h16q236 0 236 -193q0 -90 -64 -140t-186 -50q-112 0 -272 43z" />
    <glyph glyph-name="onesuperior" unicode="&#xb9;" horiz-adv-x="1044" 
d="M477 422v514h-147v84l295 41v-639h-148z" />
    <glyph glyph-name="ordmasculine" unicode="&#xba;" horiz-adv-x="966" 
d="M113 819q0 73 31.5 98t117.5 25h443q86 0 116.5 -25t30.5 -98v-274q0 -73 -30.5 -98t-116.5 -25h-443q-86 0 -117.5 25t-31.5 98v274zM252 522h461v324h-461v-324z" />
    <glyph glyph-name="guillemotright" unicode="&#xbb;" horiz-adv-x="1150" 
d="M127 735h182l242 -301l-242 -303h-182l233 303zM602 735h180l242 -301l-242 -303h-180l232 303z" />
    <glyph glyph-name="onequarter" unicode="&#xbc;" horiz-adv-x="2336" 
d="M457 465v479h-142v80l283 37v-596h-141zM1679 1090l-891 -1123h-133l893 1123h131zM1948 229v265l-363 -265h363zM1948 -6v137h-504v98l500 369h145v-369h162v-98h-162v-137h-141z" />
    <glyph glyph-name="onehalf" unicode="&#xbd;" horiz-adv-x="2336" 
d="M457 465v479h-142v80l283 37v-596h-141zM1679 1090l-891 -1123h-133l893 1123h131zM1520 475q0 69 32.5 93t120.5 24h340q88 0 121 -24t33 -93v-37q0 -49 -17.5 -70.5t-68.5 -50.5l-391 -211h387v89l123 -31v-47q0 -69 -33 -93t-121 -24h-559v53q0 18 2 28.5t10 24.5
t25.5 27t46.5 29l461 252v78h-381v-123l-131 30v76z" />
    <glyph glyph-name="threequarters" unicode="&#xbe;" horiz-adv-x="2336" 
d="M295 465q-88 0 -121 24t-33 93v47l138 24v-82h358q38 0 51.5 11t13.5 43v43q0 32 -13 42.5t-52 10.5h-223v96h198q38 0 51 11.5t13 43.5v29q0 32 -13 43.5t-51 11.5h-327v-73l-133 20v37q0 69 32.5 93t120.5 24h359q88 0 120.5 -24t32.5 -93v-53q0 -52 -29 -77t-100 -36
q79 -6 116.5 -35t37.5 -86v-61q0 -71 -33.5 -99t-126.5 -28h-387zM1679 1090l-891 -1123h-133l893 1123h131zM1948 229v265l-363 -265h363zM1948 -6v137h-504v98l500 369h145v-369h162v-98h-162v-137h-141z" />
    <glyph glyph-name="questiondown" unicode="&#xbf;" horiz-adv-x="1355" 
d="M610 766h-35q-31 0 -41 15.5t-10 54.5v151q0 49 15 59.5t71 10.5h146h35q31 0 41 -15.5t10 -54.5v-151q0 -49 -15 -59.5t-71 -10.5h-146zM784 629v-148l-354 -213v-92h473v131l205 -33v-57q0 -217 -221 -217h-418q-128 0 -190 49t-62 150v166l358 208v56h209z" />
    <glyph glyph-name="Agrave" unicode="&#xc0;" horiz-adv-x="1579" 
d="M68 0l598 1057h237l606 -1057h-276l-127 231h-670l-123 -231h-245zM541 422h463l-228 430zM938 1169h-131l-295 347h221z" />
    <glyph glyph-name="Aacute" unicode="&#xc1;" horiz-adv-x="1579" 
d="M68 0l598 1057h237l606 -1057h-276l-127 231h-670l-123 -231h-245zM541 422h463l-228 430zM643 1169l205 347h221l-295 -347h-131z" />
    <glyph glyph-name="Acircumflex" unicode="&#xc2;" horiz-adv-x="1579" 
d="M68 0l598 1057h237l606 -1057h-276l-127 231h-670l-123 -231h-245zM541 422h463l-228 430zM494 1167l188 349h217l188 -349h-131l-165 211l-168 -211h-129z" />
    <glyph glyph-name="Atilde" unicode="&#xc3;" horiz-adv-x="1579" 
d="M68 0l598 1057h237l606 -1057h-276l-127 231h-670l-123 -231h-245zM541 422h463l-228 430zM1092 1452q-23 -117 -70.5 -171t-128.5 -54q-32 0 -70 10l-84 25q-38 10 -63 10q-65 0 -86 -68h-101q40 219 193 219q38 0 84 -14l88 -25q24 -6 51 -6q31 0 54 19t32 55h101z" />
    <glyph glyph-name="Adieresis" unicode="&#xc4;" horiz-adv-x="1579" 
d="M68 0l598 1057h237l606 -1057h-276l-127 231h-670l-123 -231h-245zM541 422h463l-228 430zM518 1217v229h205v-229h-205zM858 1217v229h205v-229h-205z" />
    <glyph glyph-name="Aring" unicode="&#xc5;" horiz-adv-x="1579" 
d="M68 0l598 1057h237l606 -1057h-276l-127 231h-670l-123 -231h-245zM541 422h463l-228 430zM526 1382q0 107 74.5 181.5t181.5 74.5q108 0 184 -74.5t76 -181.5q0 -108 -76 -183t-184 -75q-107 0 -181.5 74.5t-74.5 183.5zM657 1380q0 -54 36.5 -90.5t90.5 -36.5t90.5 37
t36.5 90q0 54 -36.5 91.5t-90.5 37.5t-90.5 -37.5t-36.5 -91.5z" />
    <glyph glyph-name="AE" unicode="&#xc6;" horiz-adv-x="2189" 
d="M2007 199v-199h-934v262h-543l-215 -262h-280l883 1057h1079v-180h-684v-236h489v-180h-489v-262h694zM1073 455v442h-37l-364 -442h401z" />
    <glyph glyph-name="Ccedilla" unicode="&#xc7;" horiz-adv-x="1640" 
d="M1157 868h-663v-669h663v227l246 -51v-125q0 -147 -55.5 -198.5t-206.5 -51.5h-631q-151 0 -206.5 51.5t-55.5 198.5v557q0 147 55.5 198.5t206.5 51.5h631q151 0 206.5 -51.5t55.5 -198.5v-100l-246 -39v200zM596 -434v119q165 -43 256 -43q109 0 109 75q0 42 -35.5 61
t-108.5 19q-6 0 -20 -1t-21 -1v205h90v-94h17q119 0 177 -47.5t58 -145.5q0 -90 -64 -140t-186 -50q-112 0 -272 43z" />
    <glyph glyph-name="Egrave" unicode="&#xc8;" horiz-adv-x="1546" 
d="M270 0v1057h1082v-180h-836v-236h488v-180h-488v-262h846v-199h-1092zM965 1169h-131l-295 347h221z" />
    <glyph glyph-name="Eacute" unicode="&#xc9;" horiz-adv-x="1546" 
d="M270 0v1057h1082v-180h-836v-236h488v-180h-488v-262h846v-199h-1092zM670 1169l204 347h222l-295 -347h-131z" />
    <glyph glyph-name="Ecircumflex" unicode="&#xca;" horiz-adv-x="1546" 
d="M270 0v1057h1082v-180h-836v-236h488v-180h-488v-262h846v-199h-1092zM520 1167l189 349h217l188 -349h-131l-166 211l-168 -211h-129z" />
    <glyph glyph-name="Edieresis" unicode="&#xcb;" horiz-adv-x="1546" 
d="M270 0v1057h1082v-180h-836v-236h488v-180h-488v-262h846v-199h-1092zM545 1217v229h205v-229h-205zM885 1217v229h205v-229h-205z" />
    <glyph glyph-name="Igrave" unicode="&#xcc;" horiz-adv-x="786" 
d="M270 0v1057h246v-1057h-246zM541 1169h-131l-295 347h221z" />
    <glyph glyph-name="Iacute" unicode="&#xcd;" horiz-adv-x="786" 
d="M270 0v1057h246v-1057h-246zM246 1169l205 347h221l-295 -347h-131z" />
    <glyph glyph-name="Icircumflex" unicode="&#xce;" horiz-adv-x="786" 
d="M270 0v1057h246v-1057h-246zM96 1167l189 349h217l188 -349h-131l-166 211l-168 -211h-129z" />
    <glyph glyph-name="Idieresis" unicode="&#xcf;" horiz-adv-x="786" 
d="M270 0v1057h246v-1057h-246zM121 1217v229h205v-229h-205zM461 1217v229h205v-229h-205z" />
    <glyph glyph-name="Eth" unicode="&#xd0;" horiz-adv-x="1734" 
d="M270 0v457h-196v194h196v406h680q293 0 448.5 -137t155.5 -385q0 -149 -61 -267t-172 -186q-133 -82 -434 -82h-617zM516 199h318q243 0 354.5 75t111.5 265q0 162 -87.5 245.5t-260.5 83.5h-436v-217h393v-194h-393v-258z" />
    <glyph glyph-name="Ntilde" unicode="&#xd1;" horiz-adv-x="1779" 
d="M268 0v1057h168l744 -623q70 -57 120 -115q-10 147 -10 183v555h221v-1057h-168l-776 653q-53 46 -88 86q10 -102 10 -168v-571h-221zM1192 1452q-23 -117 -70.5 -171t-128.5 -54q-31 0 -69 10l-84 25q-38 10 -64 10q-65 0 -86 -68h-100q40 219 192 219q38 0 84 -14
l88 -25q24 -6 52 -6q31 0 54 19t32 55h100z" />
    <glyph glyph-name="Ograve" unicode="&#xd2;" horiz-adv-x="1798" 
d="M494 199h811v669h-811v-669zM248 807q0 147 55.5 198.5t206.5 51.5h778q151 0 206.5 -51.5t55.5 -198.5v-557q0 -147 -55.5 -198.5t-206.5 -51.5h-778q-151 0 -206.5 51.5t-55.5 198.5v557zM1047 1169h-132l-294 347h221z" />
    <glyph glyph-name="Oacute" unicode="&#xd3;" horiz-adv-x="1798" 
d="M494 199h811v669h-811v-669zM248 807q0 147 55.5 198.5t206.5 51.5h778q151 0 206.5 -51.5t55.5 -198.5v-557q0 -147 -55.5 -198.5t-206.5 -51.5h-778q-151 0 -206.5 51.5t-55.5 198.5v557zM752 1169l204 347h222l-295 -347h-131z" />
    <glyph glyph-name="Ocircumflex" unicode="&#xd4;" horiz-adv-x="1798" 
d="M494 199h811v669h-811v-669zM248 807q0 147 55.5 198.5t206.5 51.5h778q151 0 206.5 -51.5t55.5 -198.5v-557q0 -147 -55.5 -198.5t-206.5 -51.5h-778q-151 0 -206.5 51.5t-55.5 198.5v557zM602 1167l189 349h217l188 -349h-131l-166 211l-168 -211h-129z" />
    <glyph glyph-name="Otilde" unicode="&#xd5;" horiz-adv-x="1798" 
d="M494 199h811v669h-811v-669zM248 807q0 147 55.5 198.5t206.5 51.5h778q151 0 206.5 -51.5t55.5 -198.5v-557q0 -147 -55.5 -198.5t-206.5 -51.5h-778q-151 0 -206.5 51.5t-55.5 198.5v557zM1200 1452q-23 -117 -70.5 -171t-128.5 -54q-31 0 -69 10l-84 25q-38 10 -64 10
q-65 0 -86 -68h-100q40 219 193 219q37 0 83 -14l89 -25q24 -6 51 -6q31 0 54 19t32 55h100z" />
    <glyph glyph-name="Odieresis" unicode="&#xd6;" horiz-adv-x="1798" 
d="M494 199h811v669h-811v-669zM248 807q0 147 55.5 198.5t206.5 51.5h778q151 0 206.5 -51.5t55.5 -198.5v-557q0 -147 -55.5 -198.5t-206.5 -51.5h-778q-151 0 -206.5 51.5t-55.5 198.5v557zM627 1217v229h204v-229h-204zM967 1217v229h204v-229h-204z" />
    <glyph glyph-name="multiply" unicode="&#xd7;" horiz-adv-x="1705" 
d="M860 709l469 469l98 -99l-469 -469l469 -469l-98 -96l-469 467l-469 -467l-98 96l469 469l-469 469l98 99z" />
    <glyph glyph-name="Oslash" unicode="&#xd8;" horiz-adv-x="1798" 
d="M1305 868h-97l-467 -669h564v669zM248 807q0 147 55.5 198.5t206.5 51.5h653l189 262h202l-186 -264q103 -9 142.5 -66t39.5 -182v-557q0 -147 -55.5 -198.5t-206.5 -51.5h-657l-185 -262h-202l184 266q-100 7 -140 64t-40 182v557zM494 199h98l465 669h-563v-669z" />
    <glyph glyph-name="Ugrave" unicode="&#xd9;" horiz-adv-x="1732" 
d="M516 1057v-858h701v858h245v-807q0 -147 -55.5 -198.5t-206.5 -51.5h-668q-151 0 -206.5 51.5t-55.5 198.5v807h246zM1014 1169h-131l-295 347h221z" />
    <glyph glyph-name="Uacute" unicode="&#xda;" horiz-adv-x="1732" 
d="M516 1057v-858h701v858h245v-807q0 -147 -55.5 -198.5t-206.5 -51.5h-668q-151 0 -206.5 51.5t-55.5 198.5v807h246zM719 1169l205 347h221l-295 -347h-131z" />
    <glyph glyph-name="Ucircumflex" unicode="&#xdb;" horiz-adv-x="1732" 
d="M516 1057v-858h701v858h245v-807q0 -147 -55.5 -198.5t-206.5 -51.5h-668q-151 0 -206.5 51.5t-55.5 198.5v807h246zM569 1167l189 349h217l188 -349h-131l-166 211l-168 -211h-129z" />
    <glyph glyph-name="Udieresis" unicode="&#xdc;" horiz-adv-x="1732" 
d="M516 1057v-858h701v858h245v-807q0 -147 -55.5 -198.5t-206.5 -51.5h-668q-151 0 -206.5 51.5t-55.5 198.5v807h246zM594 1217v229h205v-229h-205zM934 1217v229h205v-229h-205z" />
    <glyph glyph-name="Yacute" unicode="&#xdd;" horiz-adv-x="1376" 
d="M565 0v473l-549 584h328l363 -406l364 406h289l-547 -578v-479h-248zM541 1169l204 347h222l-295 -347h-131z" />
    <glyph glyph-name="Thorn" unicode="&#xde;" horiz-adv-x="1521" 
d="M270 1057h242v-187h664q123 0 180 -47.5t57 -156.5v-236q0 -109 -57 -157t-180 -48h-664v-225h-242v1057zM512 688v-280h553q61 0 86 17t25 67v112q0 50 -25 67t-86 17h-553z" />
    <glyph glyph-name="germandbls" unicode="&#xdf;" horiz-adv-x="2715" 
d="M993 711h-596v-183h564q131 0 178 -41.5t47 -162.5v-119q0 -120 -47.5 -162.5t-177.5 -42.5h-564q-131 0 -179 42.5t-48 162.5v24l188 35v-102h637v198h-561q-130 0 -178.5 42t-48.5 163v97q0 121 48.5 162.5t178.5 41.5h514q125 0 176.5 -39t51.5 -149v-21l-183 -39v93z
M2351 711h-596v-183h563q131 0 178.5 -41.5t47.5 -162.5v-119q0 -120 -48 -162.5t-178 -42.5h-563q-131 0 -179 42.5t-48 162.5v24l188 35v-102h637v198h-561q-130 0 -178.5 42t-48.5 163v97q0 121 48.5 162.5t178.5 41.5h514q125 0 176 -39t51 -149v-21l-182 -39v93z" />
    <glyph glyph-name="agrave" unicode="&#xe0;" horiz-adv-x="1323" 
d="M471 348h397l-202 361zM61 0l514 866h203l522 -866h-237l-109 190h-573l-109 -190h-211zM809 979h-131l-295 346h221z" />
    <glyph glyph-name="aacute" unicode="&#xe1;" horiz-adv-x="1323" 
d="M471 348h397l-202 361zM61 0l514 866h203l522 -866h-237l-109 190h-573l-109 -190h-211zM514 979l205 346h221l-295 -346h-131z" />
    <glyph glyph-name="acircumflex" unicode="&#xe2;" horiz-adv-x="1323" 
d="M471 348h397l-202 361zM61 0l514 866h203l522 -866h-237l-109 190h-573l-109 -190h-211zM365 977l188 348h217l188 -348h-131l-165 211l-168 -211h-129z" />
    <glyph glyph-name="atilde" unicode="&#xe3;" horiz-adv-x="1323" 
d="M471 348h397l-202 361zM61 0l514 866h203l522 -866h-237l-109 190h-573l-109 -190h-211zM963 1262q-24 -117 -71 -171.5t-128 -54.5q-28 0 -70 11l-84 24q-38 10 -63 10q-65 0 -86 -67h-101q40 219 193 219q38 0 84 -14l88 -25q24 -6 51 -6q31 0 54 19t32 55h101z" />
    <glyph glyph-name="adieresis" unicode="&#xe4;" horiz-adv-x="1323" 
d="M471 348h397l-202 361zM61 0l514 866h203l522 -866h-237l-109 190h-573l-109 -190h-211zM389 1026v229h205v-229h-205zM729 1026v229h205v-229h-205z" />
    <glyph glyph-name="aring" unicode="&#xe5;" horiz-adv-x="1323" 
d="M471 348h397l-202 361zM61 0l514 866h203l522 -866h-237l-109 190h-573l-109 -190h-211zM406 1217q0 107 74.5 182.5t181.5 75.5t182.5 -75.5t75.5 -182.5q0 -109 -75 -184t-183 -75q-107 0 -181.5 75t-74.5 184zM535 1217q0 -54 37.5 -92t91.5 -38q53 0 90 38.5t37 91.5
q0 54 -36.5 90t-90.5 36t-91.5 -36t-37.5 -90z" />
    <glyph glyph-name="ae" unicode="&#xe6;" horiz-adv-x="1839" 
d="M930 373v362h-39l-316 -362h355zM1726 164v-164h-796v215h-473l-187 -215h-239l760 866h927v-153h-588v-189h420v-149h-420v-211h596z" />
    <glyph glyph-name="ccedilla" unicode="&#xe7;" horiz-adv-x="1318" 
d="M952 707h-569v-541h569v184l213 -43v-102q0 -120 -48 -162.5t-179 -42.5h-541q-131 0 -178 42.5t-47 162.5v457q0 120 47.5 162t177.5 42h541q131 0 179 -41.5t48 -162.5v-84l-213 -31v160zM440 -434v119q165 -43 256 -43q109 0 109 75q0 42 -35 61t-108 19q-6 0 -20 -1
t-21 -1v205h90v-94h16q236 0 236 -193q0 -90 -64 -140t-186 -50q-113 0 -273 43z" />
    <glyph glyph-name="egrave" unicode="&#xe8;" horiz-adv-x="1245" 
d="M193 0v866h929v-153h-716v-189h417v-149h-417v-213h727v-162h-940zM803 979h-131l-295 346h221z" />
    <glyph glyph-name="eacute" unicode="&#xe9;" horiz-adv-x="1245" 
d="M193 0v866h929v-153h-716v-189h417v-149h-417v-213h727v-162h-940zM508 979l205 346h221l-295 -346h-131z" />
    <glyph glyph-name="ecircumflex" unicode="&#xea;" horiz-adv-x="1245" 
d="M193 0v866h929v-153h-716v-189h417v-149h-417v-213h727v-162h-940zM358 977l189 348h217l188 -348h-131l-166 211l-168 -211h-129z" />
    <glyph glyph-name="edieresis" unicode="&#xeb;" horiz-adv-x="1245" 
d="M193 0v866h929v-153h-716v-189h417v-149h-417v-213h727v-162h-940zM383 1026v229h205v-229h-205zM723 1026v229h205v-229h-205z" />
    <glyph glyph-name="igrave" unicode="&#xec;" horiz-adv-x="595" 
d="M193 0v866h210v-866h-210zM446 979h-131l-295 346h222z" />
    <glyph glyph-name="iacute" unicode="&#xed;" horiz-adv-x="595" 
d="M193 0v866h210v-866h-210zM152 979l204 346h222l-295 -346h-131z" />
    <glyph glyph-name="icircumflex" unicode="&#xee;" horiz-adv-x="595" 
d="M193 0v866h210v-866h-210zM2 977l188 348h218l188 -348h-131l-166 211l-168 -211h-129z" />
    <glyph glyph-name="idieresis" unicode="&#xef;" horiz-adv-x="595" 
d="M193 0v866h210v-866h-210zM27 1026v229h204v-229h-204zM367 1026v229h204v-229h-204z" />
    <glyph glyph-name="ntilde" unicode="&#xf1;" horiz-adv-x="1458" 
d="M193 0v866h145l735 -575v575h191v-866h-146l-733 584v-584h-192zM1030 1262q-24 -117 -71 -171.5t-128 -54.5q-27 0 -69 11l-84 24q-38 10 -64 10q-65 0 -86 -67h-100q40 219 193 219q38 0 84 -14l88 -25q24 -6 51 -6q31 0 54 19t32 55h100z" />
    <glyph glyph-name="ograve" unicode="&#xf2;" horiz-adv-x="1464" 
d="M172 662q0 122 47.5 163t177.5 41h670q130 0 177.5 -41t47.5 -163v-457q0 -121 -47.5 -163t-177.5 -42h-670q-131 0 -178 41.5t-47 163.5v457zM383 166h698v541h-698v-541zM881 979h-131l-295 346h221z" />
    <glyph glyph-name="oacute" unicode="&#xf3;" horiz-adv-x="1464" 
d="M172 662q0 122 47.5 163t177.5 41h670q130 0 177.5 -41t47.5 -163v-457q0 -121 -47.5 -163t-177.5 -42h-670q-131 0 -178 41.5t-47 163.5v457zM383 166h698v541h-698v-541zM586 979l205 346h221l-295 -346h-131z" />
    <glyph glyph-name="ocircumflex" unicode="&#xf4;" horiz-adv-x="1464" 
d="M172 662q0 122 47.5 163t177.5 41h670q130 0 177.5 -41t47.5 -163v-457q0 -121 -47.5 -163t-177.5 -42h-670q-131 0 -178 41.5t-47 163.5v457zM383 166h698v541h-698v-541zM436 977l189 348h217l188 -348h-131l-166 211l-168 -211h-129z" />
    <glyph glyph-name="otilde" unicode="&#xf5;" horiz-adv-x="1464" 
d="M172 662q0 122 47.5 163t177.5 41h670q130 0 177.5 -41t47.5 -163v-457q0 -121 -47.5 -163t-177.5 -42h-670q-131 0 -178 41.5t-47 163.5v457zM383 166h698v541h-698v-541zM1034 1262q-24 -117 -70.5 -171.5t-127.5 -54.5q-28 0 -70 11l-84 24q-38 10 -64 10
q-65 0 -86 -67h-100q40 219 193 219q38 0 84 -14l88 -25q24 -6 51 -6q31 0 54 19t32 55h100z" />
    <glyph glyph-name="odieresis" unicode="&#xf6;" horiz-adv-x="1464" 
d="M172 662q0 122 47.5 163t177.5 41h670q130 0 177.5 -41t47.5 -163v-457q0 -121 -47.5 -163t-177.5 -42h-670q-131 0 -178 41.5t-47 163.5v457zM383 166h698v541h-698v-541zM461 1026v229h205v-229h-205zM801 1026v229h205v-229h-205z" />
    <glyph glyph-name="divide" unicode="&#xf7;" horiz-adv-x="1705" 
d="M854 1106q51 0 88 -37.5t37 -89.5q0 -51 -36.5 -88t-88.5 -37t-88.5 36t-36.5 89q0 52 37 89.5t88 37.5zM1452 680v-139h-1198v139h1198zM854 367q51 0 88 -36.5t37 -88.5q0 -51 -36.5 -88t-88.5 -37q-54 0 -89.5 36t-35.5 89q0 52 37 88.5t88 36.5z" />
    <glyph glyph-name="oslash" unicode="&#xf8;" horiz-adv-x="1464" 
d="M383 166h92l391 541h-483v-541zM176 662q0 121 47.5 162.5t177.5 41.5h562l161 215h174l-159 -217q89 -7 123 -53.5t34 -148.5v-457q0 -120 -47 -162.5t-178 -42.5h-565l-158 -215h-176l160 219q-86 6 -121 52.5t-35 148.5v457zM1083 707h-90l-391 -541h481v541z" />
    <glyph glyph-name="ugrave" unicode="&#xf9;" horiz-adv-x="1411" 
d="M403 866v-704h603v704h213v-661q0 -120 -48.5 -162.5t-179.5 -42.5h-573q-130 0 -177.5 42.5t-47.5 162.5v661h210zM854 979h-131l-295 346h221z" />
    <glyph glyph-name="uacute" unicode="&#xfa;" horiz-adv-x="1411" 
d="M403 866v-704h603v704h213v-661q0 -120 -48.5 -162.5t-179.5 -42.5h-573q-130 0 -177.5 42.5t-47.5 162.5v661h210zM559 979l205 346h221l-295 -346h-131z" />
    <glyph glyph-name="ucircumflex" unicode="&#xfb;" horiz-adv-x="1411" 
d="M403 866v-704h603v704h213v-661q0 -120 -48.5 -162.5t-179.5 -42.5h-573q-130 0 -177.5 42.5t-47.5 162.5v661h210zM410 977l188 348h217l189 -348h-132l-165 211l-168 -211h-129z" />
    <glyph glyph-name="udieresis" unicode="&#xfc;" horiz-adv-x="1411" 
d="M403 866v-704h603v704h213v-661q0 -120 -48.5 -162.5t-179.5 -42.5h-573q-130 0 -177.5 42.5t-47.5 162.5v661h210zM434 1026v229h205v-229h-205zM774 1026v229h205v-229h-205z" />
    <glyph glyph-name="yacute" unicode="&#xfd;" horiz-adv-x="1214" 
d="M520 0v389l-473 477h285l309 -323l313 323h248l-471 -473v-393h-211zM461 979l205 346h221l-295 -346h-131z" />
    <glyph glyph-name="ydieresis" unicode="&#xff;" horiz-adv-x="1214" 
d="M520 0v389l-473 477h285l309 -323l313 323h248l-471 -473v-393h-211zM336 1026v229h205v-229h-205zM676 1026v229h205v-229h-205z" />
    <glyph glyph-name="dotlessi" unicode="&#x131;" horiz-adv-x="595" 
d="M193 0v866h210v-866h-210z" />
    <glyph glyph-name="Lslash" unicode="&#x141;" horiz-adv-x="1398" 
d="M270 0v293l-159 -111v213l159 111v551h246v-404l324 226v-217l-324 -226v-237h793v-199h-1039z" />
    <glyph glyph-name="lslash" unicode="&#x142;" horiz-adv-x="1130" 
d="M193 0v231l-138 -98v176l138 97v460h213v-336l292 207v-180l-292 -205v-190h679v-162h-892z" />
    <glyph glyph-name="OE" unicode="&#x152;" horiz-adv-x="2263" 
d="M494 199h655v678h-655v-678zM248 807q0 147 55.5 198.5t206.5 51.5h1561v-180h-682v-236h487v-180h-487v-262h692v-199h-1571q-151 0 -206.5 51.5t-55.5 198.5v557z" />
    <glyph glyph-name="oe" unicode="&#x153;" horiz-adv-x="1857" 
d="M172 662q0 121 47 162.5t178 41.5h1344v-153h-588v-189h420v-149h-420v-211h596v-164h-1352q-131 0 -178 42t-47 163v457zM383 166h565v541h-565v-541z" />
    <glyph glyph-name="Scaron" unicode="&#x160;" horiz-adv-x="1656" 
d="M1186 872h-692v-227h659q152 0 208 -51.5t56 -198.5v-145q0 -147 -56 -198.5t-208 -51.5h-653q-152 0 -208 51.5t-56 198.5v29l217 45v-125h747v241h-659q-151 0 -206.5 51.5t-55.5 198.5v117q0 147 55.5 198.5t206.5 51.5h600q145 0 203.5 -49.5t58.5 -182.5v-22
l-217 -51v120zM532 1516h130l167 -209l166 209h131l-188 -349h-217z" />
    <glyph glyph-name="scaron" unicode="&#x161;" horiz-adv-x="1357" 
d="M993 711h-596v-183h564q131 0 178 -41.5t47 -162.5v-119q0 -120 -47.5 -162.5t-177.5 -42.5h-564q-131 0 -179 42.5t-48 162.5v24l188 35v-102h637v198h-561q-130 0 -178.5 42t-48.5 163v97q0 121 48.5 162.5t178.5 41.5h514q125 0 176.5 -39t51.5 -149v-21l-183 -39v93z
M383 1325h129l168 -209l166 209h131l-189 -348h-217z" />
    <glyph glyph-name="Ydieresis" unicode="&#x178;" horiz-adv-x="1376" 
d="M565 0v473l-549 584h328l363 -406l364 406h289l-547 -578v-479h-248zM416 1217v229h205v-229h-205zM756 1217v229h205v-229h-205z" />
    <glyph glyph-name="Zcaron" unicode="&#x17d;" horiz-adv-x="1396" 
d="M125 0v115l739 753h-665v189h1061v-105l-750 -753h750v-199h-1135zM401 1516h129l168 -209l166 209h131l-188 -349h-217z" />
    <glyph glyph-name="zcaron" unicode="&#x17e;" horiz-adv-x="1261" 
d="M143 0v94l635 617h-571v155h913v-86l-647 -620h647v-160h-977zM334 1325h129l168 -209l166 209h131l-189 -348h-217z" />
    <glyph glyph-name="florin" unicode="&#x192;" horiz-adv-x="1583" 
d="M791 12q-20 -105 -54.5 -162.5t-99.5 -84.5t-176 -27q-268 0 -268 205v69l200 47l-2 -79v-9q0 -41 16.5 -55t59.5 -14q48 0 73.5 30t37.5 95l127 647h-191v119h215l41 211q32 163 104.5 217.5t249.5 54.5q241 0 244 -201l2 -69l-203 -29l4 65v9q0 37 -16 53t-53 16
q-54 0 -79.5 -29t-37.5 -96l-41 -202h221v-119h-245z" />
    <glyph glyph-name="circumflex" unicode="&#x2c6;" 
d="M215 977l188 348h218l188 -348h-131l-166 211l-168 -211h-129z" />
    <glyph glyph-name="caron" unicode="&#x2c7;" 
d="M215 1325h129l168 -209l166 209h131l-188 -348h-218z" />
    <glyph glyph-name="breve" unicode="&#x2d8;" 
d="M213 1298h121q4 -76 47 -110.5t131 -34.5t130 34.5t46 110.5h119q-9 -149 -81 -220.5t-214 -71.5t-215 71.5t-84 220.5z" />
    <glyph glyph-name="dotaccent" unicode="&#x2d9;" 
d="M406 1022v240h215v-240h-215z" />
    <glyph glyph-name="ring" unicode="&#x2da;" 
d="M256 1217q0 107 74.5 182.5t181.5 75.5t182.5 -75.5t75.5 -182.5q0 -109 -75 -184t-183 -75q-107 0 -181.5 75t-74.5 184zM385 1217q0 -54 37.5 -92t91.5 -38q53 0 90 38.5t37 91.5q0 54 -36.5 90t-90.5 36t-91.5 -36t-37.5 -90z" />
    <glyph glyph-name="ogonek" unicode="&#x2db;" 
d="M612 0q-67 -57 -98 -107.5t-31 -105.5q0 -43 19.5 -61.5t68.5 -18.5h93v-156h-97q-117 0 -173 44t-56 137q0 126 186 268h88z" />
    <glyph glyph-name="tilde" unicode="&#x2dc;" 
d="M813 1262q-24 -117 -71 -171.5t-128 -54.5q-27 0 -69 11l-84 24q-38 10 -64 10q-65 0 -86 -67h-100q40 219 192 219q38 0 84 -14l88 -25q24 -6 52 -6q31 0 54 19t32 55h100z" />
    <glyph glyph-name="hungarumlaut" unicode="&#x2dd;" 
d="M408 979h-105l133 346h189zM565 979l162 346h197l-254 -346h-105z" />
    <glyph glyph-name="endash" unicode="&#x2013;" 
d="M0 473v143h1024v-143h-1024z" />
    <glyph glyph-name="emdash" unicode="&#x2014;" horiz-adv-x="2048" 
d="M0 616h2048v-143h-2048v143z" />
    <glyph glyph-name="quoteleft" unicode="&#x2018;" horiz-adv-x="677" 
d="M266 467h-35q-29 0 -39 17.5t-10 58.5v211l203 303h121l-174 -312h82h35q29 0 39 -17t10 -58v-127q0 -54 -14 -65t-70 -11h-148z" />
    <glyph glyph-name="quoteright" unicode="&#x2019;" horiz-adv-x="677" 
d="M412 1057h34q29 0 39.5 -17.5t10.5 -58.5v-211l-203 -303h-121l174 311h-82h-35q-29 0 -39 17.5t-10 58.5v127q0 54 14 65t70 11h148z" />
    <glyph glyph-name="quotesinglbase" unicode="&#x201a;" horiz-adv-x="677" 
d="M412 317h34q29 0 39.5 -17.5t10.5 -57.5v-211l-203 -303h-121l174 311h-82h-35q-29 0 -39 17.5t-10 58.5v127q0 54 14 64.5t70 10.5h148z" />
    <glyph glyph-name="quotedblleft" unicode="&#x201c;" horiz-adv-x="1185" 
d="M266 467h-35q-29 0 -39 17.5t-10 58.5v211l203 303h121l-174 -312h82h35q29 0 39 -17t10 -58v-127q0 -54 -14 -65t-70 -11h-148zM774 467h-35q-29 0 -40 18t-11 58v211l203 303h123l-174 -312h80h36q29 0 39.5 -17.5t10.5 -57.5v-127q0 -54 -15 -65t-71 -11h-146z" />
    <glyph glyph-name="quotedblright" unicode="&#x201d;" horiz-adv-x="1185" 
d="M412 1057h34q29 0 39.5 -17.5t10.5 -58.5v-211l-203 -303h-121l174 311h-82h-35q-29 0 -39 17.5t-10 58.5v127q0 54 14 65t70 11h148zM918 1057h36q29 0 39.5 -17.5t10.5 -58.5v-211l-203 -303h-123l174 311h-80h-35q-29 0 -40 18t-11 58v127q0 54 15 65t71 11h146z" />
    <glyph glyph-name="quotedblbase" unicode="&#x201e;" horiz-adv-x="1185" 
d="M412 317h34q29 0 39.5 -17.5t10.5 -57.5v-211l-203 -303h-121l174 311h-82h-35q-29 0 -39 17.5t-10 58.5v127q0 54 14 64.5t70 10.5h148zM918 317h36q29 0 39.5 -17.5t10.5 -57.5v-211l-203 -303h-123l174 311h-80h-35q-29 0 -40 18t-11 58v127q0 54 14.5 64.5t71.5 10.5
h146z" />
    <glyph glyph-name="dagger" unicode="&#x2020;" 
d="M483 -217q-15 339 -82 596q51 126 82 270l-338 -76v218l338 -72l-82 338h222l-84 -338l338 72v-218l-338 76q28 -133 84 -270q-70 -266 -84 -596h-56z" />
    <glyph glyph-name="daggerdbl" unicode="&#x2021;" 
d="M623 426l-84 -223l338 78v-218l-338 70l84 -338h-222l82 338l-338 -70v218l338 -78l-82 223l82 223l-338 -76v218l338 -72l-82 338h222l-84 -338l338 72v-218l-338 76z" />
    <glyph glyph-name="bullet" unicode="&#x2022;" horiz-adv-x="1208" 
d="M307 762q0 123 87 209t210 86q122 0 208.5 -86t86.5 -209q0 -122 -87 -209.5t-210 -87.5t-209 87t-86 210z" />
    <glyph glyph-name="ellipsis" unicode="&#x2026;" horiz-adv-x="2048" 
d="M414 317h37q29 0 39 -17t10 -58v-166q0 -54 -15 -65t-71 -11h-146h-37q-29 0 -39 17.5t-10 58.5v166q0 54 14.5 64.5t71.5 10.5h146zM1096 317h37q29 0 39 -17t10 -58v-166q0 -54 -15 -65t-71 -11h-146h-37q-29 0 -39 17.5t-10 58.5v166q0 54 14.5 64.5t71.5 10.5h146z
M1780 317h37q29 0 39 -17t10 -58v-166q0 -54 -15 -65t-71 -11h-146h-37q-29 0 -39 17.5t-10 58.5v166q0 54 14.5 64.5t71.5 10.5h146z" />
    <glyph glyph-name="perthousand" unicode="&#x2030;" horiz-adv-x="2375" 
d="M90 778q0 132 92 222t224 90t222.5 -90.5t90.5 -221.5q0 -129 -93.5 -223t-219.5 -94q-128 0 -222 94t-94 223zM229 774q0 -71 51 -122.5t123 -51.5q73 0 125 51t52 123t-52.5 124t-124.5 52q-70 0 -122 -52.5t-52 -123.5zM1329 1090l-891 -1123h-133l891 1123h133z
M915 283q0 132 91 222.5t223 90.5t223.5 -91t91.5 -222q0 -128 -94 -222t-221 -94q-128 0 -221 93.5t-93 222.5zM1055 281q0 -71 51 -123t123 -52q73 0 124.5 51.5t51.5 123.5t-52 124t-124 52q-70 0 -122 -52.5t-52 -123.5zM1655 283q0 132 91.5 222.5t223.5 90.5t223 -91
t91 -222q0 -129 -94 -222.5t-220 -93.5q-128 0 -221.5 93.5t-93.5 222.5zM1794 281q0 -71 51 -123t123 -52q73 0 124.5 51.5t51.5 123.5t-52 124t-124 52q-70 0 -122 -52.5t-52 -123.5z" />
    <glyph glyph-name="guilsinglleft" unicode="&#x2039;" horiz-adv-x="677" 
d="M551 131h-182l-242 303l242 301h182l-234 -301z" />
    <glyph glyph-name="guilsinglright" unicode="&#x203a;" horiz-adv-x="677" 
d="M127 735h182l242 -301l-242 -303h-182l233 303z" />
    <glyph glyph-name="fraction" unicode="&#x2044;" horiz-adv-x="342" 
d="M682 1090l-891 -1123h-133l893 1123h131z" />
    <glyph glyph-name="trademark" unicode="&#x2122;" horiz-adv-x="1705" 
d="M694 1458v-80h-172v-458h-108v458h-172v80h452zM963 1458l151 -385l141 385h150v-538h-98v444l-166 -444h-56l-174 444v-444h-98v538h150z" />
    <glyph glyph-name="minus" unicode="&#x2212;" horiz-adv-x="1705" 
d="M1452 682v-141h-1198v141h1198z" />
    <glyph glyph-name="fi" unicode="&#xfb01;" horiz-adv-x="1722" 
d="M193 0v866h919v-155h-706v-226h380v-161h-380v-324h-213zM1319 0v866h211v-866h-211z" />
    <glyph glyph-name="fl" unicode="&#xfb02;" horiz-adv-x="2256" 
d="M193 0v866h919v-155h-706v-226h380v-161h-380v-324h-213zM1319 0v866h213v-704h680v-162h-893z" />
    </font>
</defs>
</svg>
